<?xml  version="1.0" encoding="UTF-8"?>
<!DOCTYPE svg PUBLIC "-//W3C//DTD SVG 1.0//EN" "http://www.w3.org/TR/2001/REC-SVG-20010904/DTD/svg10.dtd" >
<svg xmlns="http://www.w3.org/2000/svg" >
<metadata>
<version>1.0</version>
<id><![CDATA[UniversNext for MORN W01 Cn Bold Italic]]></id>
<vendor>Monotype Imaging Inc.</vendor>
<credits>
<name>Fonts.com WebFonts</name>
<URL>http://webfonts.fonts.com</URL>
<role>Home of the Web fonts</role>
</credits>
<license>
<URL>http://webfonts.fonts.com/Legal</URL>
</license>
<copyright><![CDATA[Copyright © 2010 - 2013 Monotype GmbH.  All rights reserved.]]></copyright>
<trademark><![CDATA[Univers is a trademark of Monotype GmbH registered in the U.S. Patent and Trademark Office and may be registered in certain other jurisdictions.]]></trademark>
<licensee>
<name></name>
</licensee>
</metadata>
<defs >
<font horiz-adv-x="464" id="8a7e2e4c-6e8c-4237-bd50-4f133195acc7">
<font-face font-family="" panose-1="2 11 8 6 3 2 2 9 2 3" ascent="980" descent="-250" units-per-em="1000" alphabetic="0">
</font-face>
<missing-glyph horiz-adv-x="236" />

<glyph unicode="&#xA;" horiz-adv-x="0" />
<glyph unicode="&#xD;" horiz-adv-x="0" />
<glyph unicode=" " horiz-adv-x="236" />
<glyph unicode="!" horiz-adv-x="315" d="M152 189H65L199 723H324L152 189ZM108 0H2L34 110H140L108 0Z"  />
<glyph unicode="&quot;" horiz-adv-x="418" d="M382 418H312L293 712H401L382 418ZM204 418H132L114 712H223L204 418Z"  />
<glyph unicode="#" horiz-adv-x="472" d="M467 434H384L349 289H419L411 198H328L281 0H194L241 198H154L107 0H22L69 198H-2L6 289H91L125 434H55L63 525H147L193 723H280L232 525H320L367 723H453L405 525H475L467 434ZM212 434L176 289H264L299 434H212Z"  />
<glyph unicode="$" horiz-adv-x="472" d="M376 711Q435 706 467 680T499 603Q499 580 496 561T485 519H369Q380 557 380 578Q380 593 373 605T350 623L287 413Q320 389 343 369T381 331T403 294T410 256Q410 227 404 200Q381 106 324 61T167 10L137 -92H85L115 11Q52 16 14 42T-24 123Q-24 146 -18 172T-5 222H115Q110 205 106 188T101 154Q101 132 110 118T142 99L207 317Q145 360 114 395T82 477Q82 580 145 642T324 711L350 797H402L376 711ZM283 218Q283 235 274 253T249 285L194 100Q230 108 256 136T283 218ZM210 517Q210 499 219 479T245 444L299 626Q278 622 261 611T233 585T216 553T210 517Z"  />
<glyph unicode="%" horiz-adv-x="768" d="M389 647Q389 622 385 598T373 551Q362 513 348 480T312 422T259 382T185 367Q136 367 105 390T74 464Q74 486 78 507T89 549Q99 586 114 620T150 679T203 719T277 734Q300 734 320 730T356 716T380 689T389 647ZM152 -25H88L622 748H686L152 -25ZM301 631Q301 648 294 661T267 674Q242 674 223 650T190 592T169 525T162 471Q162 454 168 441T195 427Q214 427 228 439T254 470T273 511T287 554Q293 575 297 594T301 631ZM702 269Q702 244 698 220T686 173Q675 135 661 102T625 44T572 4T498 -11Q449 -11 418 12T387 86Q387 108 391 129T402 171Q412 208 427 242T463 301T516 341T590 356Q613 356 633 352T669 338T693 311T702 269ZM614 253Q614 270 607 283T580 296Q555 296 536 272T503 214T482 147T475 93Q475 76 481 63T508 49Q527 49 541 61T567 92T586 133T600 176Q606 197 610 216T614 253Z"  />
<glyph unicode="&amp;" horiz-adv-x="609" d="M593 336H493L396 0H170Q139 0 108 8T53 33T13 78T-3 144Q-3 173 2 198T19 247Q43 302 91 336T202 382Q163 393 139 425T115 501Q115 515 117 530T122 558Q133 603 157 636T215 692T291 725T380 736Q400 736 421 734T462 729L435 633Q413 638 396 638Q367 638 341 629T294 601T262 556T250 494Q250 458 278 444T356 430H395L436 571H560L520 430H621L593 336ZM302 336Q237 336 201 303T150 214Q147 203 145 188T142 162Q142 139 151 126T175 105T209 96T247 94H299L369 336H302Z"  />
<glyph unicode="&apos;" horiz-adv-x="227" d="M203 418H136L115 712H224L203 418Z"  />
<glyph unicode="(" horiz-adv-x="269" d="M329 723Q269 620 220 509T139 283Q108 175 98 66T78 -155H6Q3 -115 1 -76T-1 3Q-1 77 7 146T32 281Q63 395 124 506T257 723H329Z"  />
<glyph unicode=")" horiz-adv-x="269" d="M230 555Q230 489 223 427T200 306Q185 248 160 189T104 72T39 -44T-31 -155H-103Q-49 -42 2 65T86 285Q115 385 132 497T148 723H220Q225 681 227 639T230 555Z"  />
<glyph unicode="*" horiz-adv-x="440" d="M316 531L399 415L322 371L271 505L214 371L138 417L224 534L87 513V602L224 587L144 695L220 738L272 613L322 738L399 694L316 587L453 603V513L316 531Z"  />
<glyph unicode="+" horiz-adv-x="559" d="M314 215V17H200V215H13V320H200V518H314V320H500V215H314Z"  />
<glyph unicode="&#x2c;" horiz-adv-x="236" d="M-10 -100H-97L6 122H125L-10 -100Z"  />
<glyph unicode="-" horiz-adv-x="319" d="M237 223H3L29 316H264L237 223Z"  />
<glyph unicode="." horiz-adv-x="236" d="M73 0H-37L-2 122H108L73 0Z"  />
<glyph unicode="/" horiz-adv-x="285" d="M-28 -15H-120L314 738H407L-28 -15Z"  />
<glyph unicode="0" horiz-adv-x="472" d="M494 618Q494 584 485 541T465 459L416 295Q393 220 372 163T322 66T249 7T140 -13Q107 -13 78 -7T28 12T-5 48T-18 104Q-18 152 -9 197T18 300L72 486Q88 541 108 587T157 666T229 717T333 736Q364 736 393 731T445 713T480 676T494 618ZM367 603Q367 625 355 638T320 651Q296 651 279 640T246 604T216 537T183 434L142 300Q135 277 129 252T117 204T109 160T106 127Q106 102 117 87T153 72Q181 72 199 85T233 127T262 198T293 301L332 434Q346 479 356 525T367 603Z"  />
<glyph unicode="1" horiz-adv-x="472" d="M218 0H88L255 580Q223 555 187 535T113 497L148 615Q193 637 234 664T312 723H426L218 0Z"  />
<glyph unicode="2" horiz-adv-x="472" d="M500 614Q500 576 489 544T454 478T393 404T303 311L84 89H357L331 0H-76L-47 103L242 404Q280 443 304 471T343 522T364 563T370 602Q370 625 357 637T320 649Q296 649 279 640T250 614T229 579T215 540H90Q140 736 334 736Q367 736 397 729T450 707T486 669T500 614Z"  />
<glyph unicode="3" horiz-adv-x="472" d="M489 622Q489 593 482 563T462 506Q439 457 410 425T326 382Q361 372 380 349T400 281Q400 254 390 215T368 146Q351 105 331 75T284 26T220 -3T136 -13Q106 -13 75 -9T19 7T-22 40T-38 98Q-38 120 -34 142T-23 187H101Q96 172 93 156T90 126Q90 74 141 74Q165 74 182 82T211 104T233 137T250 177Q257 196 264 223T271 274Q271 309 247 322T188 336H162L187 423H197Q227 423 249 428T289 444T320 474T345 521Q352 538 356 558T360 600Q360 624 348 637T311 651Q289 651 274 643T247 620T228 588T215 550H92Q117 649 173 692T324 736Q355 736 384 731T437 712T474 677T489 622Z"  />
<glyph unicode="4" horiz-adv-x="472" d="M354 261H429L404 173H329L279 0H156L206 173H-24L7 279L313 723H487L354 261ZM97 260H236L343 632L97 260Z"  />
<glyph unicode="5" horiz-adv-x="472" d="M490 635H254L184 417Q212 443 239 454T305 466Q422 466 422 356Q422 335 418 310T406 258T389 208T372 166Q353 123 334 90T290 34T228 -1T140 -13Q109 -13 79 -8T26 10T-12 44T-27 98Q-27 115 -24 131T-16 164H109Q106 153 104 142T102 120Q102 73 150 73Q185 73 207 102T252 189Q269 231 279 271T290 334Q290 357 280 371T244 385Q212 385 189 364T154 314H34L163 723H516L490 635Z"  />
<glyph unicode="6" horiz-adv-x="472" d="M502 633Q502 617 500 604T494 575H367Q369 583 371 591T373 609Q373 652 327 652Q300 652 279 633T241 583T211 513T186 433L176 398Q208 428 237 442T309 456Q364 456 395 430T426 346Q426 316 420 288T406 231Q391 177 371 132T321 55T249 5T149 -13Q116 -13 87 -7T35 15T0 54T-13 115Q-13 150 -5 191T15 270L42 365Q67 451 91 519T147 636T227 710T345 736Q372 736 399 732T450 716T487 685T502 633ZM298 323Q298 373 247 373Q206 373 179 336T133 244Q119 202 114 176T109 128Q109 102 120 87T159 72Q203 72 229 109T276 220Q285 251 291 278T298 323Z"  />
<glyph unicode="7" horiz-adv-x="472" d="M482 622L126 0H-12L370 634H117L142 723H512L482 622Z"  />
<glyph unicode="8" horiz-adv-x="472" d="M497 616Q497 589 491 562T475 509Q455 458 423 425T338 378Q373 368 390 342T408 281Q408 266 405 249T397 213T386 178T375 148Q358 106 338 76T290 26T227 -3T144 -13Q111 -13 81 -8T28 12T-10 49T-24 108Q-24 127 -21 149T-11 194T2 236T18 272Q29 293 40 309T66 339T98 361T142 378Q110 389 97 414T84 472Q84 507 94 543T120 609Q139 645 160 669T205 708T261 729T331 736Q364 736 394 730T447 710T483 673T497 616ZM370 601Q370 651 320 651Q288 651 270 631T236 578Q225 555 217 525T208 471Q208 448 218 434T255 420Q277 420 293 430T322 455T342 490T357 529Q362 546 366 565T370 601ZM280 281Q280 304 268 319T230 335Q210 335 194 325T164 299T140 263T123 221Q114 195 110 170T105 127Q105 102 117 87T155 72Q176 72 191 80T219 103T239 134T255 170Q266 197 273 227T280 281Z"  />
<glyph unicode="9" horiz-adv-x="472" d="M484 612Q484 585 479 551T463 482L416 317Q392 231 370 169T317 67T242 7T129 -13Q102 -13 74 -9T23 8T-14 40T-29 93Q-29 110 -27 127T-19 161H108Q100 135 100 115Q100 71 147 71Q175 71 196 91T232 141T259 207T280 275L295 328Q265 301 238 287T169 272Q114 272 81 298T47 381Q47 410 53 440T67 498Q82 550 102 593T151 668T222 718T322 736Q355 736 384 730T435 710T471 672T484 612ZM362 596Q362 622 351 636T312 651Q284 651 265 636T232 598T210 549T195 501Q185 466 181 444T176 405Q176 354 226 354Q251 354 269 366T302 399T326 447T344 503Q352 532 357 555T362 596Z"  />
<glyph unicode=":" horiz-adv-x="236" d="M184 383H74L108 505H219L184 383ZM73 0H-37L-2 122H108L73 0Z"  />
<glyph unicode=";" horiz-adv-x="236" d="M187 385H79L113 505H222L187 385ZM-11 -100H-97L8 122H125L-11 -100Z"  />
<glyph unicode="&lt;" horiz-adv-x="559" d="M13 215V320L500 513V397L149 267L500 139V22L13 215Z"  />
<glyph unicode="=" horiz-adv-x="559" d="M13 107V212H500V107H13ZM13 322V426H500V322H13Z"  />
<glyph unicode="&gt;" horiz-adv-x="559" d="M13 22V139L364 267L13 397V513L500 320V215L13 22Z"  />
<glyph unicode="?" horiz-adv-x="421" d="M454 633Q454 615 452 598T444 564Q433 528 417 501T380 449T335 402T285 354Q255 323 242 301T220 249L203 189H109L129 263Q143 317 171 355T231 428Q259 459 283 489T320 558Q324 569 326 581T329 605Q329 649 286 649Q263 649 248 639T221 613T202 578T191 540H84Q96 586 113 623T155 685T217 724T306 738Q333 738 359 733T407 716T441 684T454 633ZM157 0H50L81 110H188L157 0Z"  />
<glyph unicode="@" horiz-adv-x="790" d="M802 431Q802 378 788 318T742 207T663 122T549 88Q501 88 473 109T439 169Q418 131 386 111T318 91Q286 91 265 99T232 122T214 156T208 199Q208 225 213 253T229 310Q264 414 310 463T424 513Q459 513 479 498T508 460L524 504H637L545 243Q541 232 538 222T535 202Q535 186 542 177T567 168Q600 168 627 195T672 261T701 345T711 422Q711 478 698 522T657 597T585 644T477 661Q390 661 319 621T196 515T118 368T90 203Q90 74 157 12T343 -50Q411 -50 465 -34T568 10L600 -59Q543 -93 477 -112T335 -132Q258 -132 196 -111T90 -47T22 57T-2 201Q-2 302 31 398T127 570T278 692T481 738Q559 738 619 716T719 654T781 557T802 431ZM451 295Q462 327 471 355T481 407Q481 423 474 432T448 442Q413 442 390 402T344 295Q334 268 328 246T321 206Q321 189 327 180T350 170Q382 170 405 199T451 295Z"  />
<glyph unicode="A" horiz-adv-x="576" d="M476 0H343L348 166H129L38 0H-101L307 723H481L476 0ZM182 262H350L365 616L182 262Z"  />
<glyph unicode="B" horiz-adv-x="557" d="M568 606Q568 572 559 538Q541 471 503 432T391 380Q434 372 459 345T484 272Q484 252 481 234T471 195Q454 135 429 97T369 38T286 8T178 0H-34L173 723H402Q431 723 460 718T514 701T553 665T568 606ZM430 568Q430 600 409 613T342 627H277L218 420H282Q341 420 374 445T424 527Q430 546 430 568ZM350 262Q350 300 325 314T254 328H192L125 96H184Q250 96 286 121T342 212Q350 238 350 262Z"  />
<glyph unicode="C" horiz-adv-x="537" d="M564 612Q564 584 560 558T547 505H416Q422 524 426 542T431 581Q431 613 414 627T365 641Q328 641 301 621T254 566T217 482T184 374Q170 323 161 288T146 229T138 187T135 151Q135 116 150 99T202 82Q236 82 260 95T299 131T325 180T342 237H476Q460 176 440 129T387 50T309 2T194 -15Q156 -15 121 -8T59 17T16 63T0 135Q0 180 12 234T44 360Q68 441 91 510T150 630T241 709T383 738Q416 738 448 733T506 713T548 675T564 612Z"  />
<glyph unicode="D" horiz-adv-x="585" d="M584 571Q584 520 573 471T549 379Q523 289 500 219T440 100T343 26T184 0H-34L173 723H375Q413 723 450 717T517 694T565 647T584 571ZM445 541Q445 591 417 608T342 626H279L127 96H194Q246 96 279 116T336 172T375 256T406 358Q420 405 432 454T445 541Z"  />
<glyph unicode="E" horiz-adv-x="483" d="M524 625H279L220 422H447L419 327H193L128 98H379L351 0H-34L173 723H552L524 625Z"  />
<glyph unicode="F" horiz-adv-x="450" d="M505 625H279L219 419H435L407 324H192L99 0H-34L173 723H532L505 625Z"  />
<glyph unicode="G" horiz-adv-x="561" d="M578 602Q578 576 574 555T563 510H429Q434 527 437 544T441 580Q441 614 423 627T372 641Q331 641 303 621T253 566T216 482T184 377Q161 295 149 240T136 157Q136 116 155 99T215 82Q267 82 312 98L365 286H271L298 382H524L420 21Q364 4 312 -5T202 -15Q163 -15 127 -8T62 16T17 63T0 139Q0 175 10 228T44 364Q69 451 94 520T155 637T247 712T387 738Q421 738 455 732T516 711T561 669T578 602Z"  />
<glyph unicode="H" horiz-adv-x="601" d="M427 0H293L387 328H194L100 0H-34L174 723H308L223 424H416L501 723H635L427 0Z"  />
<glyph unicode="I" horiz-adv-x="273" d="M100 0H-34L173 723H307L100 0Z"  />
<glyph unicode="J" horiz-adv-x="491" d="M387 219Q371 162 351 119T301 45T228 0T122 -15Q91 -15 61 -10T8 10T-29 46T-44 104Q-44 139 -37 171T-19 236H114Q106 213 99 185T91 132Q91 83 141 83Q169 83 187 96T219 129T240 175T255 224L397 723H531L387 219Z"  />
<glyph unicode="K" horiz-adv-x="545" d="M348 381L438 0H298L216 393L481 723H640L348 381ZM100 0H-34L173 723H307L100 0Z"  />
<glyph unicode="L" horiz-adv-x="442" d="M325 0H-34L173 723H307L128 98H354L325 0Z"  />
<glyph unicode="M" horiz-adv-x="830" d="M656 0H531L712 633L378 0H237L268 634L84 0H-34L175 723H382L347 139L646 723H863L656 0Z"  />
<glyph unicode="N" horiz-adv-x="635" d="M461 0H267L261 634L82 0H-34L173 723H367L375 89L552 723H668L461 0Z"  />
<glyph unicode="O" horiz-adv-x="576" d="M576 590Q576 564 572 535T561 474T546 411T530 353Q507 271 485 203T427 87T336 12T193 -15Q154 -15 119 -7T58 19T16 66T0 139Q0 190 12 243T42 353Q64 432 87 502T146 624T238 707T383 738Q422 738 457 732T518 708T560 663T576 590ZM440 568Q440 606 423 623T368 641Q332 641 306 622T262 574T230 509T205 440Q197 416 185 378T161 298T142 218T134 154Q134 116 151 99T207 82Q238 82 260 94T299 125T328 170T350 220Q360 246 370 279T391 348Q399 375 407 405T423 465T435 521T440 568Z"  />
<glyph unicode="P" horiz-adv-x="536" d="M568 596Q568 567 563 535T546 470T520 410T483 361Q443 323 389 313T262 303H186L100 0H-34L173 723H386Q418 723 450 719T509 700T551 661T568 596ZM430 565Q430 586 422 598T399 617T368 625T334 627H279L214 399H265Q303 399 332 407T381 434Q392 444 401 460T416 494T426 530T430 565Z"  />
<glyph unicode="Q" horiz-adv-x="582" d="M576 590Q576 533 561 471T530 353Q516 304 500 256T455 164Q439 139 421 118T379 79Q411 85 442 88T505 92L479 0H371Q344 0 321 -1T277 -5T236 -8T193 -10Q156 -10 121 -3T59 21T16 68T0 142Q0 197 13 248T42 353Q56 402 70 450T101 540T142 619T199 682T277 723T383 738Q422 738 457 732T518 708T560 663T576 590ZM440 568Q440 606 423 623T368 641Q330 641 304 621T259 570T228 504T205 440Q196 416 184 378T161 299T142 220T134 157Q134 119 151 103T207 87Q238 87 260 98T299 128T328 171T350 220Q360 246 370 279T391 348Q399 375 407 405T423 465T435 521T440 568Z"  />
<glyph unicode="R" horiz-adv-x="567" d="M577 602Q577 578 572 552T558 501T536 452T506 413Q486 393 459 380T394 361Q431 357 451 337T472 277Q472 235 461 195T438 111Q431 84 425 56T417 0H278Q282 30 291 64T309 132T325 199T332 260Q332 278 325 288T307 303T281 310T251 312H189L100 0H-34L173 723H398Q428 723 459 719T517 701T560 664T577 602ZM434 567Q434 586 427 597T407 615T380 624T349 626H279L217 407H273Q313 407 340 415T387 443Q397 453 405 468T420 501T430 535T434 567Z"  />
<glyph unicode="S" horiz-adv-x="512" d="M539 616Q539 596 535 575T521 525H389Q394 540 399 558T404 591Q404 620 385 630T340 641Q317 641 296 633T260 611T235 575T225 529Q225 495 242 471T290 423L356 369Q389 342 415 305T441 224Q441 186 423 140T369 58Q333 23 282 4T163 -15Q131 -15 97 -10T35 10T-10 50T-28 116Q-28 142 -23 168T-9 218H125Q119 201 114 180T108 140Q108 108 127 95T177 82Q202 82 225 91T264 118T291 157T301 205Q301 236 286 259T246 303L171 364Q131 396 109 431T87 514Q87 561 108 605T169 680Q207 710 256 724T360 738Q390 738 421 732T479 712T522 675T539 616Z"  />
<glyph unicode="T" horiz-adv-x="470" d="M543 625H379L199 0H65L245 625H79L107 723H571L543 625Z"  />
<glyph unicode="U" horiz-adv-x="605" d="M506 238Q488 176 465 129T408 50T327 2T212 -15Q175 -15 140 -9T76 14T31 58T14 128Q14 159 19 187T32 245L168 723H301L167 254Q159 225 153 200T147 153Q147 115 167 99T225 82Q262 82 288 97T331 136T359 190T379 250L514 723H645L506 238Z"  />
<glyph unicode="V" horiz-adv-x="547" d="M253 0H92L111 723H247L202 120L509 723H644L253 0Z"  />
<glyph unicode="W" horiz-adv-x="861" d="M596 0H444L501 592L220 0H65L116 723H250L180 136L460 723H615L555 136L822 723H953L596 0Z"  />
<glyph unicode="X" horiz-adv-x="537" d="M349 368L431 0H299L252 279L45 0H-103L201 379L122 723H257L302 468L486 723H631L349 368Z"  />
<glyph unicode="Y" horiz-adv-x="516" d="M291 266L215 0H81L161 269L102 723H235L259 387L484 723H625L291 266Z"  />
<glyph unicode="Z" horiz-adv-x="479" d="M529 613L86 98H385L357 0H-83L-52 111L392 625H112L139 723H560L529 613Z"  />
<glyph unicode="[" horiz-adv-x="269" d="M331 647H232L25 -78H123L101 -155H-95L156 723H352L331 647Z"  />
<glyph unicode="\" horiz-adv-x="285" d="M100 -15L96 738H188L191 -15H100Z"  />
<glyph unicode="]" horiz-adv-x="269" d="M68 -155H-128L-106 -78H-8L200 647H102L123 723H319L68 -155Z"  />
<glyph unicode="^" horiz-adv-x="559" d="M407 292L302 581L196 292H77L249 723H355L527 292H407Z"  />
<glyph unicode="_" horiz-adv-x="500" d="M-103 -125V-75H397V-125H-103Z"  />
<glyph unicode="`" horiz-adv-x="225" d="M174 584L73 726H191L246 584H174Z"  />
<glyph unicode="a" horiz-adv-x="457" d="M414 418Q414 398 410 379T401 341Q377 256 351 172T311 0H191L206 59Q176 24 144 7T64 -10Q19 -10 -10 15T-40 90Q-40 142 -20 187Q-4 224 24 248T88 288T163 309T246 316H273Q282 344 287 366T293 404Q293 442 252 442Q216 442 197 421T168 367H45Q57 409 77 438T126 484T188 508T264 516Q289 516 316 513T364 499T400 469T414 418ZM232 246Q179 246 143 224T93 151Q87 131 87 110Q87 69 128 69Q157 69 177 85T211 127T235 184T253 246H232Z"  />
<glyph unicode="b" horiz-adv-x="487" d="M449 418Q449 401 446 381T439 339T428 296T417 255Q401 200 384 152T342 67T283 11T197 -10Q159 -10 129 3T86 55L70 0H-50Q-42 23 -35 46T-20 94L160 723H283L206 455Q236 484 268 500T342 516Q391 516 420 493T449 418ZM320 386Q320 408 311 423T277 438Q247 438 226 418T189 369T164 308T148 254Q140 225 131 190T122 125Q122 101 132 85T169 68Q197 68 218 90T254 143T278 207T294 261Q302 288 311 322T320 386Z"  />
<glyph unicode="c" horiz-adv-x="436" d="M422 412Q422 391 419 374T410 336H291Q295 350 298 363T302 392Q302 437 256 437Q224 437 203 417T167 368T144 307T128 251Q124 237 119 220T110 186T103 151T100 119Q100 95 110 81T147 67Q170 67 186 77T214 102T233 137T247 175H366Q352 128 334 93T288 35T224 0T137 -12Q106 -12 77 -7T26 12T-9 49T-23 107Q-23 140 -17 171T-1 235Q15 292 33 343T81 432T153 493T265 516Q292 516 320 512T370 497T407 465T422 412Z"  />
<glyph unicode="d" horiz-adv-x="483" d="M352 94Q345 71 340 47T328 0H207L222 55Q194 24 165 7T93 -10Q39 -10 9 18T-22 98Q-22 137 -14 175T6 252Q21 304 36 351T76 435T135 494T224 516Q259 516 288 504T331 456L408 723H532L352 94ZM299 383Q299 406 290 422T254 438Q225 438 205 417T170 365T146 303T130 249Q122 220 114 187T105 124Q105 102 113 85T148 68Q176 68 197 88T232 136T256 196T272 248Q280 278 289 315T299 383Z"  />
<glyph unicode="e" horiz-adv-x="452" d="M417 400Q417 359 406 318T384 237H124Q116 209 107 176T98 114Q98 66 145 66Q166 66 182 74T209 97T228 129T241 165H360Q346 120 326 87T279 32T215 -1T131 -12Q100 -12 72 -7T23 13T-10 50T-22 108Q-22 143 -15 177T2 244Q18 299 38 348T88 434T163 494T272 516Q302 516 328 510T374 491T405 455T417 400ZM298 393Q298 438 254 438Q228 438 210 426T180 394T159 351T145 307H280Q286 328 292 349T298 393Z"  />
<glyph unicode="f" horiz-adv-x="290" d="M364 645H352Q326 645 310 638T282 618T265 587T252 545L242 504H321L298 425H218L97 0H-27L95 425H27L50 504H118L130 550Q139 586 151 619T182 676T232 715T309 730Q348 730 387 727L364 645Z"  />
<glyph unicode="g" horiz-adv-x="483" d="M474 504Q467 484 461 463T448 421L322 -20Q308 -70 287 -103T237 -157T168 -187T80 -196Q55 -196 28 -193T-23 -180T-62 -152T-78 -102Q-78 -75 -70 -46H60Q57 -55 55 -65T53 -85Q53 -126 96 -126Q127 -126 147 -108T181 -61T204 1T222 65Q192 34 163 20T91 6Q40 6 9 32T-22 113Q-22 146 -15 177T1 241Q18 301 36 351T80 438T140 495T222 516Q241 516 259 513T292 501T317 480T333 446L350 504H474ZM300 380Q300 404 291 420T254 437Q224 437 203 415T168 362T144 298T128 243Q120 217 114 190T107 136Q107 113 116 97T151 81Q179 81 199 99T234 144T258 200T274 251Q282 280 291 314T300 380Z"  />
<glyph unicode="h" horiz-adv-x="491" d="M450 428Q450 409 447 395T438 362L335 0H210L306 333Q311 348 314 364T318 396Q318 438 275 438Q252 438 235 427T204 398T182 360T168 321L76 0H-49L158 723H283L206 454Q235 483 269 499T347 516Q369 516 387 511T420 496T442 469T450 428Z"  />
<glyph unicode="i" horiz-adv-x="234" d="M252 609H126L157 716H283L252 609ZM76 0H-48L97 504H221L76 0Z"  />
<glyph unicode="j" horiz-adv-x="234" d="M61 -52Q48 -97 33 -125T-5 -168T-60 -189T-138 -195Q-146 -195 -153 -195T-168 -194L-145 -113H-139Q-120 -113 -108 -110T-87 -100T-73 -80T-62 -48L97 504H221L61 -52ZM252 609H126L157 716H283L252 609Z"  />
<glyph unicode="k" horiz-adv-x="448" d="M283 277L349 0H219L161 288L341 504H486L283 277ZM76 0H-49L158 723H283L76 0Z"  />
<glyph unicode="l" horiz-adv-x="234" d="M76 0H-49L158 723H283L76 0Z"  />
<glyph unicode="m" horiz-adv-x="726" d="M685 430Q685 408 681 389T671 348L571 0H447L544 338Q549 352 552 368T556 399Q556 436 516 436Q495 436 478 425T449 396T429 359T415 322L323 0H199L298 346Q302 359 304 371T307 398Q307 436 269 436Q247 436 230 425T201 396T181 358T167 319L75 0H-49L74 429Q79 447 84 466T92 504H215L198 446Q226 477 260 496T336 516Q376 516 402 502T437 446Q469 477 502 496T581 516Q603 516 622 512T655 497T677 470T685 430Z"  />
<glyph unicode="n" horiz-adv-x="491" d="M450 429Q450 410 447 394T438 359L335 0H210L306 334Q311 349 314 365T318 397Q318 438 275 438Q252 438 235 427T204 397T181 358T167 319L76 0H-49L71 417Q77 439 82 460T92 504H219L204 451Q234 483 267 499T345 516Q388 516 419 497T450 429Z"  />
<glyph unicode="o" d="M426 400Q426 364 419 331T401 262Q384 203 367 153T322 66T251 9T138 -12Q107 -12 79 -7T28 12T-8 49T-22 108Q-22 145 -14 180T4 250Q20 308 39 356T88 440T161 496T271 516Q300 516 328 511T377 493T412 458T426 400ZM304 389Q304 437 256 437Q228 437 209 423T177 387T156 339T140 287L112 192Q107 173 103 155T99 119Q99 67 149 67Q176 67 194 79T224 111T244 154T258 201L286 300Q292 320 298 344T304 389Z"  />
<glyph unicode="p" horiz-adv-x="486" d="M448 416Q448 398 445 377T437 335T427 293T417 257Q403 209 387 161T346 75T285 14T193 -10Q161 -10 131 1T88 45L21 -192H-103L64 390Q72 418 80 446T94 504H215L200 450Q229 481 263 498T342 516Q392 516 420 492T448 416ZM318 386Q318 409 309 423T275 438Q245 438 224 418T187 368T162 305T145 247Q137 218 129 187T121 126Q121 102 131 85T168 68Q192 68 211 85T245 130T271 192T293 261Q301 289 309 323T318 386Z"  />
<glyph unicode="q" horiz-adv-x="484" d="M472 504Q462 475 454 446T437 388L270 -192H146L215 48Q189 19 162 5T94 -10Q42 -10 10 17T-22 97Q-22 133 -15 171T4 247Q17 292 32 339T71 426T131 490T223 516Q260 516 291 502T335 447L352 504H472ZM299 377Q299 388 298 399T292 418T278 432T255 438Q228 438 209 420T175 375T150 315T130 252Q122 223 114 189T105 125Q105 103 113 86T147 68Q173 68 192 84T226 124T250 179T269 239Q273 255 278 273T288 309T296 344T299 377Z"  />
<glyph unicode="r" horiz-adv-x="312" d="M320 405Q312 407 299 407Q238 407 206 373T157 284L76 0H-49L69 411Q76 434 82 457T94 504H214L196 439Q226 477 261 495T345 514H351L320 405Z"  />
<glyph unicode="s" horiz-adv-x="414" d="M396 423Q396 406 393 392T385 362H264Q268 373 270 384T273 408Q273 428 262 437T230 446Q201 446 181 425T160 374Q160 353 177 337T222 303L251 285Q267 275 282 264T308 240T327 212T334 178Q334 166 333 155T329 132Q318 93 297 66T247 22T183 -2T110 -10Q86 -10 59 -6T8 9T-31 40T-46 89Q-46 108 -42 125T-32 159H89Q85 146 82 133T79 106Q79 84 92 76T125 67Q160 67 182 91T204 151Q204 174 186 191T134 229L105 247Q76 266 54 288T31 344Q31 355 32 365T36 386Q46 422 67 447T117 487T179 509T244 516Q268 516 294 513T343 499T381 471T396 423Z"  />
<glyph unicode="t" horiz-adv-x="293" d="M296 425H215L134 143Q131 133 129 124T127 105Q127 88 139 83T168 77Q184 77 201 80L178 -1Q160 -4 143 -5T106 -6Q87 -6 68 -4T32 6T6 27T-4 64Q-4 81 -2 97T6 129L91 425H24L47 504H114L139 591L277 641L238 504H319L296 425Z"  />
<glyph unicode="u" horiz-adv-x="488" d="M356 88Q350 66 345 44T335 0H209L224 56Q195 25 164 8T88 -10Q66 -10 47 -6T12 9T-12 35T-21 76Q-21 93 -19 106T-12 136L94 504H218L122 171Q117 156 114 141T110 110Q110 88 122 78T155 68Q177 68 194 79T223 106T244 143T258 181L351 504H476L356 88Z"  />
<glyph unicode="v" horiz-adv-x="428" d="M187 0H44L46 504H172L143 107L344 504H466L187 0Z"  />
<glyph unicode="w" horiz-adv-x="704" d="M479 0H338L362 388L167 0H29L50 504H174L127 114L328 504H464L435 114L616 504H737L479 0Z"  />
<glyph unicode="x" horiz-adv-x="436" d="M261 261L324 0H203L170 188L34 0H-100L122 270L65 504H189L215 341L328 504H459L261 261Z"  />
<glyph unicode="y" horiz-adv-x="433" d="M67 -193H-57L60 2L47 504H177L160 149L344 504H471L67 -193Z"  />
<glyph unicode="z" horiz-adv-x="373" d="M368 423L76 80H271L248 0H-82L-58 85L232 425H50L74 504H392L368 423Z"  />
<glyph unicode="{" horiz-adv-x="366" d="M440 663Q401 660 375 647T331 612T302 565T282 510L275 487Q265 453 253 420T220 360T165 314T77 290Q99 287 118 282T151 265T174 238T182 196Q182 173 176 148T162 95L155 71Q149 51 145 30T141 -11Q141 -51 166 -66T227 -83L208 -149Q177 -147 146 -142T91 -124T51 -87T36 -26Q36 -2 40 21T52 68L64 109Q69 126 72 143T75 177Q75 198 68 212T48 236T18 249T-17 257L2 323Q43 328 71 341T117 374T147 418T167 471L179 513Q190 551 205 588T251 655T330 705T459 729L440 663Z"  />
<glyph unicode="|" horiz-adv-x="222" d="M63 -214V787H171V-214H63Z"  />
<glyph unicode="}" horiz-adv-x="366" d="M-111 -83Q-72 -80 -46 -67T-2 -32T27 15T47 70L54 93Q64 127 76 160T109 220T164 266T252 290Q230 293 211 298T178 315T155 342T147 384Q147 407 153 432T167 485L174 509Q180 529 184 550T188 591Q188 631 163 646T102 663L121 729Q152 727 183 722T238 704T278 667T293 606Q293 582 289 559T277 512L265 471Q260 454 257 437T254 403Q254 382 261 368T281 344T311 331T346 323L327 257Q286 252 258 239T212 206T182 162T162 109L150 67Q139 29 124 -8T78 -75T-1 -125T-130 -149L-111 -83Z"  />
<glyph unicode="~" horiz-adv-x="559" d="M503 342Q498 270 461 224T351 178Q326 178 300 186T238 212Q202 229 184 235T147 242Q123 242 109 225T89 181H10Q15 253 52 299T162 345Q187 345 213 337T275 311Q311 294 329 288T366 281Q390 281 404 298T424 342H503Z"  />
<glyph unicode="&#xA0;" horiz-adv-x="236" />
<glyph unicode="&#xA1;" horiz-adv-x="315" d="M231 432H124L155 542H262L231 432ZM65 -181H-60L112 353H199L65 -181Z"  />
<glyph unicode="&#xA2;" horiz-adv-x="472" d="M287 436Q283 437 276 437Q244 437 223 417T187 368T164 307T148 251Q142 232 137 210T126 167T118 129T115 105L287 436ZM442 412Q442 391 439 374T430 336H311Q315 350 318 363T322 392Q322 397 320 407L148 70Q155 67 167 67Q190 67 206 77T234 102T253 137T267 175H386Q372 128 354 93T308 35T244 0T157 -12Q132 -12 108 -9L65 -94H16L65 3Q35 15 16 40T-3 107Q-3 140 3 171T19 235Q35 292 53 343T101 432T173 493T285 516Q296 516 306 516T326 514L368 594H417L371 505Q401 495 421 474T442 412Z"  />
<glyph unicode="&#xA3;" horiz-adv-x="472" d="M529 636Q529 616 526 596T517 556H410Q413 567 415 578T418 601Q418 646 372 646Q351 646 335 638T308 616T289 585T276 549L242 431H376L349 339H216L146 94H377L350 0H-59L-32 94H33L103 339H35L61 431H129L157 525Q170 571 187 609T230 676T293 720T385 736Q413 736 439 732T485 717T517 686T529 636Z"  />
<glyph unicode="&#xA4;" horiz-adv-x="472" d="M23 199L79 254Q53 295 53 349Q53 402 79 445L23 500L85 562L141 505Q183 530 236 530Q287 530 331 505L387 562L449 500L392 445Q419 401 419 349Q419 322 412 298T393 254L449 199L387 137L331 193Q289 169 236 169Q181 169 141 193L85 137L23 199ZM322 350Q322 387 298 413T236 440Q198 440 174 414T150 350Q150 312 174 286T236 259Q273 259 297 285T322 350Z"  />
<glyph unicode="&#xA5;" horiz-adv-x="476" d="M318 350H434L413 275H274L255 209H394L373 134H234L195 0H66L105 134H-33L-12 209H126L145 275H6L26 350H148L119 723H252L243 390L428 723H568L318 350Z"  />
<glyph unicode="&#xA6;" horiz-adv-x="222" d="M63 411V662H171V411H63ZM63 -89V161H171V-89H63Z"  />
<glyph unicode="&#xA7;" horiz-adv-x="456" d="M462 614Q433 628 402 638T337 648Q324 648 310 645T283 634T264 616T256 589Q256 566 278 551T330 521Q348 512 365 503T397 481T420 454T429 419Q429 390 417 365T385 319T342 281T295 252Q319 238 334 216T349 164Q349 118 327 84T271 28T195 -5T114 -16Q76 -16 34 -10T-44 12L-14 115Q18 98 52 89T122 79Q137 79 153 82T183 94T206 115T215 146Q215 168 193 183T141 214Q123 223 105 233T72 256T48 285T39 322Q39 350 51 374T84 419T129 454T178 479Q155 494 141 516T127 567Q127 610 146 642T195 695T263 727T339 738Q377 738 416 731T490 711L462 614ZM310 389Q310 412 292 425T255 448Q240 442 223 434T192 414T168 387T158 354Q158 341 163 331T177 313T196 298T217 286Q231 293 247 303T278 327T301 355T310 389Z"  />
<glyph unicode="&#xA8;" horiz-adv-x="225" d="M319 608H217L248 713H350L319 608ZM149 608H47L78 713H180L149 608Z"  />
<glyph unicode="&#xA9;" horiz-adv-x="796" d="M779 361Q779 280 751 211T672 92T553 14T404 -14Q324 -14 255 14T136 92T57 211T28 361Q28 442 56 511T135 630T255 708T404 737Q484 737 552 709T671 630T750 511T779 361ZM710 361Q710 429 687 486T623 586T526 651T403 675Q337 675 281 652T184 586T120 487T97 361Q97 293 120 236T183 136T280 71T403 47Q470 47 526 70T623 136T687 235T710 361ZM557 285Q557 217 520 185T411 152Q363 152 332 165T284 204T261 270T254 362Q254 411 260 450T283 516T332 557T414 572Q482 572 518 541T554 447V438H461V445Q461 456 460 467T453 488T438 502T412 508Q392 508 381 499T363 473T356 429T354 368Q354 325 355 296T363 249T380 224T410 216Q428 216 439 222T455 238T461 261T463 288V297H557V285Z"  />
<glyph unicode="&#xAA;" horiz-adv-x="339" d="M375 673Q375 662 373 651T368 626Q362 602 354 576T338 524T324 472T314 424H235L242 457Q223 439 204 429T158 419Q130 419 110 433T89 476Q89 495 94 515Q103 549 121 569T164 599T219 613T282 617Q287 631 289 643T292 662Q292 685 269 685Q247 685 236 673T219 642H140Q154 693 189 713T277 734Q293 734 310 732T342 724T365 705T375 673ZM259 569Q224 569 198 552T171 495Q171 482 178 477T198 472Q227 472 242 497T268 569H259Z"  />
<glyph unicode="&#xAB;" horiz-adv-x="439" d="M111 245L143 58H46L10 253L152 447H258L111 245ZM278 245L310 58H213L177 253L319 447H425L278 245Z"  />
<glyph unicode="&#xAC;" horiz-adv-x="559" d="M386 145V322H13V426H500V145H386Z"  />
<glyph unicode="&#xAD;" horiz-adv-x="319" d="M237 223H3L29 316H264L237 223Z"  />
<glyph unicode="&#xAE;" horiz-adv-x="385" d="M429 550Q429 510 415 476T375 416T316 377T241 362Q202 362 168 376T108 416T69 476T54 550Q54 589 68 623T108 683T167 723T241 738Q281 738 315 724T375 684T414 625T429 550ZM394 550Q394 583 383 611T351 659T302 691T241 703Q209 703 182 691T134 659T102 610T90 550Q90 518 101 490T133 442T180 409T241 397Q273 397 301 409T349 441T382 490T394 550ZM283 449Q280 457 279 467T277 484Q277 495 276 502T270 515T253 522T223 524H213V449H164V652H238Q254 652 270 650T299 642T320 625T329 593Q329 573 319 562T291 544Q312 536 318 522T325 488Q325 466 332 449H283ZM280 589Q280 606 266 610T237 615H213V562H236Q251 562 265 566T280 589Z"  />
<glyph unicode="&#xAF;" horiz-adv-x="225" d="M328 624H48L66 685H346L328 624Z"  />
<glyph unicode="&#xB0;" horiz-adv-x="399" d="M94 578Q94 612 106 640T140 689T191 721T254 733Q288 733 317 722T368 690T402 641T415 578Q415 544 403 516T368 467T317 435T254 423Q220 423 191 434T141 466T107 515T94 578ZM327 578Q327 611 307 632T254 654Q223 654 203 633T182 578Q182 545 202 524T254 502Q286 502 306 523T327 578Z"  />
<glyph unicode="&#xB1;" horiz-adv-x="559" d="M315 301V154H199V301H13V406H199V553H315V406H500V301H315ZM13 0V105H500V0H13Z"  />
<glyph unicode="&#xB2;" horiz-adv-x="298" d="M408 819Q408 774 383 737T327 670L184 533H335L316 469H63L82 535L249 692Q277 718 300 748T324 803Q324 816 315 824T292 833Q261 833 248 813T228 767H151Q166 824 205 858T306 893Q324 893 342 890T374 877T398 854T408 819Z"  />
<glyph unicode="&#xB3;" horiz-adv-x="298" d="M402 826Q402 783 379 745T317 688Q352 668 352 627Q352 618 350 610T346 593Q328 530 289 497T182 463Q164 463 147 465T116 475T95 496T87 532Q87 546 89 559T96 587H174Q172 579 170 570T168 552Q168 535 178 530T203 525Q219 525 231 535T251 560T263 591T267 622Q267 637 261 645T245 656T223 659T200 659L216 715Q235 715 251 717T279 725T300 743T315 776Q317 784 319 792T321 809Q321 835 293 835Q267 835 254 817T234 777H157Q173 834 209 864T306 894Q324 894 341 892T371 882T393 861T402 826Z"  />
<glyph unicode="&#xB4;" horiz-adv-x="225" d="M186 584H108L233 726H365L186 584Z"  />
<glyph unicode="&#xB5;" horiz-adv-x="490" d="M210 0L224 54Q204 18 183 4T135 -10Q119 -10 104 -2T82 24L20 -192H-103L96 504H220L122 165Q117 151 115 136T112 110Q112 68 157 68Q177 68 193 77T221 101T243 135T259 177L353 504H478L357 83Q350 59 346 41T337 0H210Z"  />
<glyph unicode="&#xB6;" horiz-adv-x="566" d="M391 0H289L474 639H381L195 0H93L187 330Q121 335 82 371T42 476Q42 533 69 578T144 656T255 706T391 723H600L391 0Z"  />
<glyph unicode="&#xB7;" horiz-adv-x="236" d="M142 238H33L67 360H177L142 238Z"  />
<glyph unicode="&#xB8;" horiz-adv-x="225" d="M86 -111Q86 -137 73 -157T38 -192T-9 -215T-59 -223Q-84 -223 -109 -218T-156 -199L-127 -161Q-97 -176 -63 -176Q-35 -176 -14 -162T7 -125Q7 -98 -33 -98Q-43 -98 -52 -100T-72 -106L-88 -88L-9 0H39L-11 -61Q4 -56 18 -56Q46 -56 66 -70T86 -111Z"  />
<glyph unicode="&#xB9;" horiz-adv-x="298" d="M252 469H166L259 794Q237 780 215 767T168 745L190 823Q218 835 243 851T291 887H370L252 469Z"  />
<glyph unicode="&#xBA;" horiz-adv-x="340" d="M201 474Q224 474 236 492T261 548Q272 581 278 604T285 645Q285 658 280 666T260 675Q237 675 225 657T200 601Q189 568 183 545T176 504Q176 491 181 483T201 474ZM191 415Q171 415 154 418T123 430T101 452T93 489Q93 510 96 530T106 571Q116 606 127 636T157 687T202 721T271 734Q290 734 308 731T339 719T360 697T368 660Q368 639 365 619T355 578Q345 543 334 513T304 461T259 427T191 415Z"  />
<glyph unicode="&#xBB;" horiz-adv-x="439" d="M269 260L237 447H334L370 252L228 58H122L269 260ZM102 260L70 447H167L203 252L61 58H-45L102 260Z"  />
<glyph unicode="&#xBC;" horiz-adv-x="749" d="M628 162H664L645 96H609L582 0H497L525 95H387L409 173L591 419H702L628 162ZM127 -25H64L591 737H655L127 -25ZM175 299H91L183 624Q161 610 139 597T92 575L114 653Q170 677 216 717H295L175 299ZM597 327Q569 284 539 243T478 160H548L597 327Z"  />
<glyph unicode="&#xBD;" horiz-adv-x="749" d="M703 350Q703 305 679 268T623 201L479 64H630L612 0H358L377 66L544 223Q572 249 595 279T619 334Q619 347 610 355T587 364Q556 364 544 344T524 298H447Q462 355 501 389T602 424Q620 424 638 421T670 408T694 385T703 350ZM192 299H106L199 624Q177 610 155 597T108 575L130 653Q158 665 183 681T231 717H310L192 299ZM127 -25H63L589 737H654L127 -25Z"  />
<glyph unicode="&#xBE;" horiz-adv-x="749" d="M637 162H673L654 96H618L590 0H506L534 95H397L418 173L600 419H710L637 162ZM150 -25H87L614 737H678L150 -25ZM342 655Q342 612 319 574T257 517Q292 497 292 456Q292 440 287 422Q269 359 229 326T122 292Q103 292 86 294T56 304T35 326T27 362Q27 387 35 416H115Q113 408 111 399T109 381Q109 364 119 359T144 354Q160 354 172 364T192 389T204 421T208 451Q208 466 202 474T186 485T164 488T141 488L157 544Q176 544 192 546T220 554T241 572T256 605Q258 613 260 621T262 638Q262 664 233 664Q207 664 194 646T175 606H97Q113 663 149 693T246 723Q264 723 281 721T311 711T333 690T342 655ZM606 327Q578 284 548 243T487 160H556L606 327Z"  />
<glyph unicode="&#xBF;" horiz-adv-x="421" d="M286 432H179L211 542H318L286 432ZM284 2Q272 -44 255 -81T213 -143T151 -182T62 -196Q35 -196 9 -192T-39 -175T-73 -143T-86 -92Q-86 -74 -84 -57T-76 -23Q-66 13 -49 40T-12 92T33 139T83 188Q114 219 127 242T149 295Q151 305 154 315Q156 323 159 333T165 352H259L238 279Q223 228 197 191T141 121T86 56T47 -16Q39 -40 39 -64Q39 -107 82 -107Q104 -107 120 -97T147 -71T164 -36T176 2H284Z"  />
<glyph unicode="&#xC0;" horiz-adv-x="576" d="M476 0H343L348 166H129L38 0H-101L307 723H481L476 0ZM182 262H350L365 616L182 262ZM401 778L300 920H418L473 778H401Z"  />
<glyph unicode="&#xC1;" horiz-adv-x="576" d="M476 0H343L348 166H129L38 0H-101L307 723H481L476 0ZM182 262H350L365 616L182 262ZM412 778H334L459 920H591L412 778Z"  />
<glyph unicode="&#xC2;" horiz-adv-x="576" d="M476 0H343L348 166H129L38 0H-101L307 723H481L476 0ZM182 262H350L365 616L182 262ZM488 777L436 864L334 777H249L393 920H497L560 777H488Z"  />
<glyph unicode="&#xC3;" horiz-adv-x="576" d="M476 0H343L348 166H129L38 0H-101L307 723H481L476 0ZM182 262H350L365 616L182 262ZM611 904Q602 884 590 864T560 828T523 803T478 793Q460 793 444 799T411 811T379 824T344 830Q324 830 310 817T288 786H235Q244 807 257 827T287 863T326 888T373 898Q391 898 407 892T438 879T468 865T499 859Q521 859 535 872T558 904H611Z"  />
<glyph unicode="&#xC4;" horiz-adv-x="576" d="M476 0H343L348 166H129L38 0H-101L307 723H481L476 0ZM182 262H350L365 616L182 262ZM545 792H443L474 897H576L545 792ZM375 792H273L304 897H406L375 792Z"  />
<glyph unicode="&#xC5;" horiz-adv-x="576" d="M476 0H343L348 166H129L38 0H-101L307 723H481L476 0ZM182 262H350L365 616L182 262ZM328 850Q328 871 335 889T356 920T388 941T428 949Q449 949 467 942T498 921T520 889T528 850Q528 829 520 811T499 780T467 759T428 751Q407 751 389 758T357 779T336 811T328 850ZM370 850Q370 824 386 807T428 790Q453 790 469 807T486 850Q486 876 470 893T428 910Q403 910 387 893T370 850Z"  />
<glyph unicode="&#xC6;" horiz-adv-x="764" d="M801 625H529L501 423H730L702 327H492L460 99H665L637 0H320L344 167H128L25 0H-111L344 723H828L801 625ZM184 262H356L411 639L184 262Z"  />
<glyph unicode="&#xC7;" horiz-adv-x="537" d="M271 -111Q271 -137 258 -157T223 -192T176 -215T126 -223Q101 -223 76 -218T29 -199L58 -161Q88 -176 122 -176Q150 -176 171 -162T192 -125Q192 -98 152 -98Q142 -98 133 -100T113 -106L97 -88L163 -14Q130 -11 101 -2T49 24T13 69T0 135Q0 180 12 234T44 360Q68 441 91 510T150 630T241 709T383 738Q416 738 448 733T506 713T548 675T564 612Q564 584 560 558T547 505H416Q422 524 426 542T431 581Q431 613 414 627T365 641Q328 641 301 621T254 566T217 482T184 374Q170 323 161 288T146 229T138 187T135 151Q135 116 150 99T202 82Q236 82 260 95T299 131T325 180T342 237H476Q460 178 441 132T391 54T318 5T212 -15L174 -61Q189 -56 203 -56Q231 -56 251 -70T271 -111Z"  />
<glyph unicode="&#xC8;" horiz-adv-x="483" d="M524 625H279L220 422H447L419 327H193L128 98H379L351 0H-34L173 723H552L524 625ZM380 778L279 920H397L452 778H380Z"  />
<glyph unicode="&#xC9;" horiz-adv-x="483" d="M524 625H279L220 422H447L419 327H193L128 98H379L351 0H-34L173 723H552L524 625ZM391 778H313L438 920H570L391 778Z"  />
<glyph unicode="&#xCA;" horiz-adv-x="483" d="M524 625H279L220 422H447L419 327H193L128 98H379L351 0H-34L173 723H552L524 625ZM467 777L415 864L313 777H228L372 920H476L539 777H467Z"  />
<glyph unicode="&#xCB;" horiz-adv-x="483" d="M524 625H279L220 422H447L419 327H193L128 98H379L351 0H-34L173 723H552L524 625ZM514 792H412L443 897H545L514 792ZM344 792H242L273 897H375L344 792Z"  />
<glyph unicode="&#xCC;" horiz-adv-x="273" d="M100 0H-34L173 723H307L100 0ZM250 778L149 920H267L322 778H250Z"  />
<glyph unicode="&#xCD;" horiz-adv-x="273" d="M100 0H-34L173 723H307L100 0ZM261 778H183L308 920H440L261 778Z"  />
<glyph unicode="&#xCE;" horiz-adv-x="273" d="M100 0H-34L173 723H307L100 0ZM327 777L275 864L173 777H88L232 920H336L399 777H327Z"  />
<glyph unicode="&#xCF;" horiz-adv-x="273" d="M100 0H-34L173 723H307L100 0ZM394 792H292L323 897H425L394 792ZM224 792H122L153 897H255L224 792Z"  />
<glyph unicode="&#xD0;" horiz-adv-x="585" d="M584 571Q584 520 573 471T549 379Q523 289 500 219T440 100T343 26T184 0H-34L69 360H3L25 436H91L173 723H375Q413 723 450 717T517 694T565 647T584 571ZM202 360L127 96H194Q246 96 279 116T336 172T375 256T406 358Q420 405 432 454T445 541Q445 591 417 608T342 626H279L224 436H338L315 360H202Z"  />
<glyph unicode="&#xD1;" horiz-adv-x="635" d="M461 0H267L261 634L82 0H-34L173 723H367L375 89L552 723H668L461 0ZM628 904Q619 884 607 864T577 828T540 803T495 793Q477 793 461 799T428 811T396 824T361 830Q341 830 327 817T305 786H252Q261 807 274 827T304 863T343 888T390 898Q408 898 424 892T455 879T485 865T516 859Q538 859 552 872T575 904H628Z"  />
<glyph unicode="&#xD2;" horiz-adv-x="576" d="M576 590Q576 564 572 535T561 474T546 411T530 353Q507 271 485 203T427 87T336 12T193 -15Q154 -15 119 -7T58 19T16 66T0 139Q0 190 12 243T42 353Q64 432 87 502T146 624T238 707T383 738Q422 738 457 732T518 708T560 663T576 590ZM440 568Q440 606 423 623T368 641Q332 641 306 622T262 574T230 509T205 440Q197 416 185 378T161 298T142 218T134 154Q134 116 151 99T207 82Q238 82 260 94T299 125T328 170T350 220Q360 246 370 279T391 348Q399 375 407 405T423 465T435 521T440 568ZM389 778L288 920H406L461 778H389Z"  />
<glyph unicode="&#xD3;" horiz-adv-x="576" d="M576 590Q576 564 572 535T561 474T546 411T530 353Q507 271 485 203T427 87T336 12T193 -15Q154 -15 119 -7T58 19T16 66T0 139Q0 190 12 243T42 353Q64 432 87 502T146 624T238 707T383 738Q422 738 457 732T518 708T560 663T576 590ZM440 568Q440 606 423 623T368 641Q332 641 306 622T262 574T230 509T205 440Q197 416 185 378T161 298T142 218T134 154Q134 116 151 99T207 82Q238 82 260 94T299 125T328 170T350 220Q360 246 370 279T391 348Q399 375 407 405T423 465T435 521T440 568ZM400 778H322L447 920H579L400 778Z"  />
<glyph unicode="&#xD4;" horiz-adv-x="576" d="M576 590Q576 564 572 535T561 474T546 411T530 353Q507 271 485 203T427 87T336 12T193 -15Q154 -15 119 -7T58 19T16 66T0 139Q0 190 12 243T42 353Q64 432 87 502T146 624T238 707T383 738Q422 738 457 732T518 708T560 663T576 590ZM440 568Q440 606 423 623T368 641Q332 641 306 622T262 574T230 509T205 440Q197 416 185 378T161 298T142 218T134 154Q134 116 151 99T207 82Q238 82 260 94T299 125T328 170T350 220Q360 246 370 279T391 348Q399 375 407 405T423 465T435 521T440 568ZM476 777L424 864L322 777H237L381 920H485L548 777H476Z"  />
<glyph unicode="&#xD5;" horiz-adv-x="576" d="M576 590Q576 564 572 535T561 474T546 411T530 353Q507 271 485 203T427 87T336 12T193 -15Q154 -15 119 -7T58 19T16 66T0 139Q0 190 12 243T42 353Q64 432 87 502T146 624T238 707T383 738Q422 738 457 732T518 708T560 663T576 590ZM440 568Q440 606 423 623T368 641Q332 641 306 622T262 574T230 509T205 440Q197 416 185 378T161 298T142 218T134 154Q134 116 151 99T207 82Q238 82 260 94T299 125T328 170T350 220Q360 246 370 279T391 348Q399 375 407 405T423 465T435 521T440 568ZM599 904Q590 884 578 864T548 828T511 803T466 793Q448 793 432 799T399 811T367 824T332 830Q312 830 298 817T276 786H223Q232 807 245 827T275 863T314 888T361 898Q379 898 395 892T426 879T456 865T487 859Q509 859 523 872T546 904H599Z"  />
<glyph unicode="&#xD6;" horiz-adv-x="576" d="M576 590Q576 564 572 535T561 474T546 411T530 353Q507 271 485 203T427 87T336 12T193 -15Q154 -15 119 -7T58 19T16 66T0 139Q0 190 12 243T42 353Q64 432 87 502T146 624T238 707T383 738Q422 738 457 732T518 708T560 663T576 590ZM440 568Q440 606 423 623T368 641Q332 641 306 622T262 574T230 509T205 440Q197 416 185 378T161 298T142 218T134 154Q134 116 151 99T207 82Q238 82 260 94T299 125T328 170T350 220Q360 246 370 279T391 348Q399 375 407 405T423 465T435 521T440 568ZM533 792H431L462 897H564L533 792ZM363 792H261L292 897H394L363 792Z"  />
<glyph unicode="&#xD7;" horiz-adv-x="559" d="M256 335L408 486L482 411L331 260L483 108L408 33L256 185L105 34L30 109L181 260L30 411L105 486L256 335Z"  />
<glyph unicode="&#xD8;" horiz-adv-x="576" d="M575 618Q576 611 576 605T577 590Q577 533 562 471T530 353Q507 275 486 208T430 91T340 13T193 -15Q145 -15 103 -2T35 40L-43 -44L-83 -10L8 87Q0 111 0 139Q0 194 14 247T43 353Q57 402 71 450T102 541T143 620T199 682T277 723T383 738Q438 738 484 724T555 671L628 750L667 717L575 618ZM440 571Q439 641 368 641Q330 641 304 621T260 570T229 504T206 440Q200 424 192 400T176 347T160 290T146 234L438 542Q439 550 439 556T440 571ZM135 146Q137 112 154 97T208 82Q239 82 261 94T300 125T328 170T350 220Q361 248 374 288T399 372L420 453L135 146Z"  />
<glyph unicode="&#xD9;" horiz-adv-x="605" d="M506 238Q488 176 465 129T408 50T327 2T212 -15Q175 -15 140 -9T76 14T31 58T14 128Q14 159 19 187T32 245L168 723H301L167 254Q159 225 153 200T147 153Q147 115 167 99T225 82Q262 82 288 97T331 136T359 190T379 250L514 723H645L506 238ZM411 778L310 920H428L483 778H411Z"  />
<glyph unicode="&#xDA;" horiz-adv-x="605" d="M506 238Q488 176 465 129T408 50T327 2T212 -15Q175 -15 140 -9T76 14T31 58T14 128Q14 159 19 187T32 245L168 723H301L167 254Q159 225 153 200T147 153Q147 115 167 99T225 82Q262 82 288 97T331 136T359 190T379 250L514 723H645L506 238ZM422 778H344L469 920H601L422 778Z"  />
<glyph unicode="&#xDB;" horiz-adv-x="605" d="M506 238Q488 176 465 129T408 50T327 2T212 -15Q175 -15 140 -9T76 14T31 58T14 128Q14 159 19 187T32 245L168 723H301L167 254Q159 225 153 200T147 153Q147 115 167 99T225 82Q262 82 288 97T331 136T359 190T379 250L514 723H645L506 238ZM498 777L446 864L344 777H259L403 920H507L570 777H498Z"  />
<glyph unicode="&#xDC;" horiz-adv-x="605" d="M506 238Q488 176 465 129T408 50T327 2T212 -15Q175 -15 140 -9T76 14T31 58T14 128Q14 159 19 187T32 245L168 723H301L167 254Q159 225 153 200T147 153Q147 115 167 99T225 82Q262 82 288 97T331 136T359 190T379 250L514 723H645L506 238ZM555 792H453L484 897H586L555 792ZM385 792H283L314 897H416L385 792Z"  />
<glyph unicode="&#xDD;" horiz-adv-x="516" d="M291 266L215 0H81L161 269L102 723H235L259 387L484 723H625L291 266ZM375 778H297L422 920H554L375 778Z"  />
<glyph unicode="&#xDE;" horiz-adv-x="536" d="M530 473Q530 442 525 408T509 342T482 280T443 228Q406 192 356 183T235 173H149L100 0H-34L173 723H307L270 593H350Q381 593 413 589T471 571T513 535T530 473ZM391 435Q391 456 383 468T360 487T329 495T295 497H242L177 270H228Q267 270 295 278T343 307Q365 329 378 366T391 435Z"  />
<glyph unicode="&#xDF;" horiz-adv-x="539" d="M527 624Q527 590 516 564T487 516T449 478T412 445T383 412T371 375Q371 352 386 332T419 290T452 241T467 179Q467 134 452 99T410 40T346 3T266 -10Q245 -10 222 -7T179 6T146 32T133 76Q133 92 136 107T144 138H248Q246 130 244 121T242 104Q242 70 279 70Q295 70 308 78T330 99T343 127T348 157Q348 185 333 210T300 260T266 312T251 370Q251 396 262 416T290 453T326 487T363 520T391 558T402 605Q402 631 386 641T346 651Q314 651 293 639T258 608T236 563T220 513L73 0H-50L97 512Q113 568 134 609T187 677T260 717T362 730Q386 730 415 726T468 709T510 677T527 624Z"  />
<glyph unicode="&#xE0;" horiz-adv-x="457" d="M414 418Q414 398 410 379T401 341Q377 256 351 172T311 0H191L206 59Q176 24 144 7T64 -10Q19 -10 -10 15T-40 90Q-40 142 -20 187Q-4 224 24 248T88 288T163 309T246 316H273Q282 344 287 366T293 404Q293 442 252 442Q216 442 197 421T168 367H45Q57 409 77 438T126 484T188 508T264 516Q289 516 316 513T364 499T400 469T414 418ZM232 246Q179 246 143 224T93 151Q87 131 87 110Q87 69 128 69Q157 69 177 85T211 127T235 184T253 246H232ZM283 584L182 726H300L355 584H283Z"  />
<glyph unicode="&#xE1;" horiz-adv-x="457" d="M414 418Q414 398 410 379T401 341Q377 256 351 172T311 0H191L206 59Q176 24 144 7T64 -10Q19 -10 -10 15T-40 90Q-40 142 -20 187Q-4 224 24 248T88 288T163 309T246 316H273Q282 344 287 366T293 404Q293 442 252 442Q216 442 197 421T168 367H45Q57 409 77 438T126 484T188 508T264 516Q289 516 316 513T364 499T400 469T414 418ZM232 246Q179 246 143 224T93 151Q87 131 87 110Q87 69 128 69Q157 69 177 85T211 127T235 184T253 246H232ZM294 584H216L341 726H473L294 584Z"  />
<glyph unicode="&#xE2;" horiz-adv-x="457" d="M414 418Q414 398 410 379T401 341Q377 256 351 172T311 0H191L206 59Q176 24 144 7T64 -10Q19 -10 -10 15T-40 90Q-40 142 -20 187Q-4 224 24 248T88 288T163 309T246 316H273Q282 344 287 366T293 404Q293 442 252 442Q216 442 197 421T168 367H45Q57 409 77 438T126 484T188 508T264 516Q289 516 316 513T364 499T400 469T414 418ZM232 246Q179 246 143 224T93 151Q87 131 87 110Q87 69 128 69Q157 69 177 85T211 127T235 184T253 246H232ZM371 583L319 670L217 583H132L276 726H380L443 583H371Z"  />
<glyph unicode="&#xE3;" horiz-adv-x="457" d="M414 418Q414 398 410 379T401 341Q377 256 351 172T311 0H191L206 59Q176 24 144 7T64 -10Q19 -10 -10 15T-40 90Q-40 142 -20 187Q-4 224 24 248T88 288T163 309T246 316H273Q282 344 287 366T293 404Q293 442 252 442Q216 442 197 421T168 367H45Q57 409 77 438T126 484T188 508T264 516Q289 516 316 513T364 499T400 469T414 418ZM232 246Q179 246 143 224T93 151Q87 131 87 110Q87 69 128 69Q157 69 177 85T211 127T235 184T253 246H232ZM493 710Q484 690 472 670T442 634T405 609T360 599Q342 599 326 605T293 617T261 630T226 636Q206 636 192 623T170 592H117Q126 613 139 633T169 669T208 694T255 704Q273 704 289 698T320 685T350 671T381 665Q403 665 417 678T440 710H493Z"  />
<glyph unicode="&#xE4;" horiz-adv-x="457" d="M414 418Q414 398 410 379T401 341Q377 256 351 172T311 0H191L206 59Q176 24 144 7T64 -10Q19 -10 -10 15T-40 90Q-40 142 -20 187Q-4 224 24 248T88 288T163 309T246 316H273Q282 344 287 366T293 404Q293 442 252 442Q216 442 197 421T168 367H45Q57 409 77 438T126 484T188 508T264 516Q289 516 316 513T364 499T400 469T414 418ZM232 246Q179 246 143 224T93 151Q87 131 87 110Q87 69 128 69Q157 69 177 85T211 127T235 184T253 246H232ZM428 608H326L357 713H459L428 608ZM258 608H156L187 713H289L258 608Z"  />
<glyph unicode="&#xE5;" horiz-adv-x="457" d="M414 418Q414 398 410 379T401 341Q377 256 351 172T311 0H191L206 59Q176 24 144 7T64 -10Q19 -10 -10 15T-40 90Q-40 142 -20 187Q-4 224 24 248T88 288T163 309T246 316H273Q282 344 287 366T293 404Q293 442 252 442Q216 442 197 421T168 367H45Q57 409 77 438T126 484T188 508T264 516Q289 516 316 513T364 499T400 469T414 418ZM232 246Q179 246 143 224T93 151Q87 131 87 110Q87 69 128 69Q157 69 177 85T211 127T235 184T253 246H232ZM413 666Q413 645 405 627T384 596T352 575T313 567Q292 567 274 574T242 595T221 627T213 666Q213 687 220 705T241 736T273 757T313 765Q334 765 352 758T383 737T405 705T413 666ZM371 666Q371 692 355 709T313 726Q288 726 272 709T255 666Q255 640 271 623T313 606Q338 606 354 623T371 666Z"  />
<glyph unicode="&#xE6;" horiz-adv-x="701" d="M665 398Q665 357 655 319T634 241H371Q363 212 354 180T344 117Q344 91 355 79T393 66Q414 66 430 74T457 97T477 129T490 165H609Q581 77 530 33T386 -12Q366 -12 346 -8T309 6T279 30T262 66Q221 23 181 6T81 -12Q26 -12 -8 11T-43 89Q-43 124 -35 152T-12 203Q7 233 35 253T99 286T173 305T254 311H273Q278 329 285 353T293 396Q293 438 248 438Q213 438 195 418T167 367H44Q64 446 121 481T255 516Q273 516 293 513T332 503T363 481T381 446Q436 516 527 516Q587 516 626 489T665 398ZM547 391Q547 438 500 438Q475 438 457 426T427 395T406 354T392 311H530Q535 331 541 351T547 391ZM229 242Q177 242 141 222T91 153Q85 133 85 111Q85 90 95 78T128 66Q159 66 180 85T215 131T239 189T254 242H229Z"  />
<glyph unicode="&#xE7;" horiz-adv-x="436" d="M211 -111Q211 -137 198 -157T163 -192T116 -215T66 -223Q41 -223 16 -218T-31 -199L-2 -161Q28 -176 62 -176Q90 -176 111 -162T132 -125Q132 -98 92 -98Q82 -98 73 -100T53 -106L37 -88L106 -10Q80 -8 57 -1T16 19T-12 54T-23 107Q-23 140 -17 171T-1 235Q15 292 33 343T81 432T153 493T265 516Q292 516 320 512T370 497T407 465T422 412Q422 391 419 374T410 336H291Q295 350 298 363T302 392Q302 437 256 437Q224 437 203 417T167 368T144 307T128 251Q124 237 119 220T110 186T103 151T100 119Q100 95 110 81T147 67Q170 67 186 77T214 102T233 137T247 175H366Q352 130 335 96T292 39T234 4T154 -11L114 -61Q129 -56 143 -56Q171 -56 191 -70T211 -111Z"  />
<glyph unicode="&#xE8;" horiz-adv-x="452" d="M417 400Q417 359 406 318T384 237H124Q116 209 107 176T98 114Q98 66 145 66Q166 66 182 74T209 97T228 129T241 165H360Q346 120 326 87T279 32T215 -1T131 -12Q100 -12 72 -7T23 13T-10 50T-22 108Q-22 143 -15 177T2 244Q18 299 38 348T88 434T163 494T272 516Q302 516 328 510T374 491T405 455T417 400ZM298 393Q298 438 254 438Q228 438 210 426T180 394T159 351T145 307H280Q286 328 292 349T298 393ZM282 584L181 726H299L354 584H282Z"  />
<glyph unicode="&#xE9;" horiz-adv-x="452" d="M417 400Q417 359 406 318T384 237H124Q116 209 107 176T98 114Q98 66 145 66Q166 66 182 74T209 97T228 129T241 165H360Q346 120 326 87T279 32T215 -1T131 -12Q100 -12 72 -7T23 13T-10 50T-22 108Q-22 143 -15 177T2 244Q18 299 38 348T88 434T163 494T272 516Q302 516 328 510T374 491T405 455T417 400ZM298 393Q298 438 254 438Q228 438 210 426T180 394T159 351T145 307H280Q286 328 292 349T298 393ZM293 584H215L340 726H472L293 584Z"  />
<glyph unicode="&#xEA;" horiz-adv-x="452" d="M417 400Q417 359 406 318T384 237H124Q116 209 107 176T98 114Q98 66 145 66Q166 66 182 74T209 97T228 129T241 165H360Q346 120 326 87T279 32T215 -1T131 -12Q100 -12 72 -7T23 13T-10 50T-22 108Q-22 143 -15 177T2 244Q18 299 38 348T88 434T163 494T272 516Q302 516 328 510T374 491T405 455T417 400ZM298 393Q298 438 254 438Q228 438 210 426T180 394T159 351T145 307H280Q286 328 292 349T298 393ZM370 583L318 670L216 583H131L275 726H379L442 583H370Z"  />
<glyph unicode="&#xEB;" horiz-adv-x="452" d="M417 400Q417 359 406 318T384 237H124Q116 209 107 176T98 114Q98 66 145 66Q166 66 182 74T209 97T228 129T241 165H360Q346 120 326 87T279 32T215 -1T131 -12Q100 -12 72 -7T23 13T-10 50T-22 108Q-22 143 -15 177T2 244Q18 299 38 348T88 434T163 494T272 516Q302 516 328 510T374 491T405 455T417 400ZM298 393Q298 438 254 438Q228 438 210 426T180 394T159 351T145 307H280Q286 328 292 349T298 393ZM427 608H325L356 713H458L427 608ZM257 608H155L186 713H288L257 608Z"  />
<glyph unicode="&#xEC;" horiz-adv-x="234" d="M76 0H-48L97 504H221L76 0ZM178 584L77 726H195L250 584H178Z"  />
<glyph unicode="&#xED;" horiz-adv-x="234" d="M76 0H-48L97 504H221L76 0ZM189 584H111L236 726H368L189 584Z"  />
<glyph unicode="&#xEE;" horiz-adv-x="234" d="M76 0H-48L97 504H221L76 0ZM251 583L199 670L97 583H12L156 726H260L323 583H251Z"  />
<glyph unicode="&#xEF;" horiz-adv-x="234" d="M76 0H-48L97 504H221L76 0ZM323 608H221L252 713H354L323 608ZM153 608H51L82 713H184L153 608Z"  />
<glyph unicode="&#xF0;" d="M385 667Q417 632 432 588T447 495Q447 440 435 386T408 278Q391 219 374 167T328 75T255 12T141 -12Q109 -12 80 -7T28 11T-8 47T-22 106Q-22 140 -15 173T1 238Q15 289 32 337T77 422T144 483T247 506Q277 506 305 494T345 454Q345 456 345 462T345 471Q345 513 334 549T295 617L188 560L155 600L251 651Q234 662 219 671T186 688L261 753Q288 743 309 731T346 704L450 760L482 718L385 667ZM302 383Q302 429 254 429Q224 429 204 412T171 370T149 317T134 265Q129 249 124 231T113 193T104 154T100 118Q100 67 151 67Q178 67 196 80T226 112T245 155T259 199L283 283Q290 307 296 334T302 383Z"  />
<glyph unicode="&#xF1;" horiz-adv-x="491" d="M450 429Q450 410 447 394T438 359L335 0H210L306 334Q311 349 314 365T318 397Q318 438 275 438Q252 438 235 427T204 397T181 358T167 319L76 0H-49L71 417Q77 439 82 460T92 504H219L204 451Q234 483 267 499T345 516Q388 516 419 497T450 429ZM496 710Q487 690 475 670T445 634T408 609T363 599Q345 599 329 605T296 617T264 630T229 636Q209 636 195 623T173 592H120Q129 613 142 633T172 669T211 694T258 704Q276 704 292 698T323 685T353 671T384 665Q406 665 420 678T443 710H496Z"  />
<glyph unicode="&#xF2;" d="M426 400Q426 364 419 331T401 262Q384 203 367 153T322 66T251 9T138 -12Q107 -12 79 -7T28 12T-8 49T-22 108Q-22 145 -14 180T4 250Q20 308 39 356T88 440T161 496T271 516Q300 516 328 511T377 493T412 458T426 400ZM304 389Q304 437 256 437Q228 437 209 423T177 387T156 339T140 287L112 192Q107 173 103 155T99 119Q99 67 149 67Q176 67 194 79T224 111T244 154T258 201L286 300Q292 320 298 344T304 389ZM288 584L187 726H305L360 584H288Z"  />
<glyph unicode="&#xF3;" d="M426 400Q426 364 419 331T401 262Q384 203 367 153T322 66T251 9T138 -12Q107 -12 79 -7T28 12T-8 49T-22 108Q-22 145 -14 180T4 250Q20 308 39 356T88 440T161 496T271 516Q300 516 328 511T377 493T412 458T426 400ZM304 389Q304 437 256 437Q228 437 209 423T177 387T156 339T140 287L112 192Q107 173 103 155T99 119Q99 67 149 67Q176 67 194 79T224 111T244 154T258 201L286 300Q292 320 298 344T304 389ZM299 584H221L346 726H478L299 584Z"  />
<glyph unicode="&#xF4;" d="M426 400Q426 364 419 331T401 262Q384 203 367 153T322 66T251 9T138 -12Q107 -12 79 -7T28 12T-8 49T-22 108Q-22 145 -14 180T4 250Q20 308 39 356T88 440T161 496T271 516Q300 516 328 511T377 493T412 458T426 400ZM304 389Q304 437 256 437Q228 437 209 423T177 387T156 339T140 287L112 192Q107 173 103 155T99 119Q99 67 149 67Q176 67 194 79T224 111T244 154T258 201L286 300Q292 320 298 344T304 389ZM376 583L324 670L222 583H137L281 726H385L448 583H376Z"  />
<glyph unicode="&#xF5;" d="M426 400Q426 364 419 331T401 262Q384 203 367 153T322 66T251 9T138 -12Q107 -12 79 -7T28 12T-8 49T-22 108Q-22 145 -14 180T4 250Q20 308 39 356T88 440T161 496T271 516Q300 516 328 511T377 493T412 458T426 400ZM304 389Q304 437 256 437Q228 437 209 423T177 387T156 339T140 287L112 192Q107 173 103 155T99 119Q99 67 149 67Q176 67 194 79T224 111T244 154T258 201L286 300Q292 320 298 344T304 389ZM498 710Q489 690 477 670T447 634T410 609T365 599Q347 599 331 605T298 617T266 630T231 636Q211 636 197 623T175 592H122Q131 613 144 633T174 669T213 694T260 704Q278 704 294 698T325 685T355 671T386 665Q408 665 422 678T445 710H498Z"  />
<glyph unicode="&#xF6;" d="M426 400Q426 364 419 331T401 262Q384 203 367 153T322 66T251 9T138 -12Q107 -12 79 -7T28 12T-8 49T-22 108Q-22 145 -14 180T4 250Q20 308 39 356T88 440T161 496T271 516Q300 516 328 511T377 493T412 458T426 400ZM304 389Q304 437 256 437Q228 437 209 423T177 387T156 339T140 287L112 192Q107 173 103 155T99 119Q99 67 149 67Q176 67 194 79T224 111T244 154T258 201L286 300Q292 320 298 344T304 389ZM433 608H331L362 713H464L433 608ZM263 608H161L192 713H294L263 608Z"  />
<glyph unicode="&#xF7;" horiz-adv-x="559" d="M200 399V524H314V399H200ZM13 215V320H500V215H13ZM200 11V136H314V11H200Z"  />
<glyph unicode="&#xF8;" d="M426 400Q426 364 419 331T401 262Q384 203 367 153T322 66T251 9T138 -12Q100 -12 65 -4T7 28L-67 -43L-101 -10L-17 71Q-22 89 -22 108Q-22 145 -14 180T4 250Q20 308 39 356T88 440T161 496T271 516Q309 516 344 507T401 473L480 549L514 516L423 429Q426 415 426 400ZM304 389Q304 437 256 437Q228 437 209 423T177 387T156 339T140 287L113 196L304 379V389ZM99 117Q100 93 111 80T149 67Q176 67 194 79T224 111T244 154T258 201L285 295L99 117Z"  />
<glyph unicode="&#xF9;" horiz-adv-x="488" d="M356 88Q350 66 345 44T335 0H209L224 56Q195 25 164 8T88 -10Q66 -10 47 -6T12 9T-12 35T-21 76Q-21 93 -19 106T-12 136L94 504H218L122 171Q117 156 114 141T110 110Q110 88 122 78T155 68Q177 68 194 79T223 106T244 143T258 181L351 504H476L356 88ZM303 584L202 726H320L375 584H303Z"  />
<glyph unicode="&#xFA;" horiz-adv-x="488" d="M356 88Q350 66 345 44T335 0H209L224 56Q195 25 164 8T88 -10Q66 -10 47 -6T12 9T-12 35T-21 76Q-21 93 -19 106T-12 136L94 504H218L122 171Q117 156 114 141T110 110Q110 88 122 78T155 68Q177 68 194 79T223 106T244 143T258 181L351 504H476L356 88ZM314 584H236L361 726H493L314 584Z"  />
<glyph unicode="&#xFB;" horiz-adv-x="488" d="M356 88Q350 66 345 44T335 0H209L224 56Q195 25 164 8T88 -10Q66 -10 47 -6T12 9T-12 35T-21 76Q-21 93 -19 106T-12 136L94 504H218L122 171Q117 156 114 141T110 110Q110 88 122 78T155 68Q177 68 194 79T223 106T244 143T258 181L351 504H476L356 88ZM391 583L339 670L237 583H152L296 726H400L463 583H391Z"  />
<glyph unicode="&#xFC;" horiz-adv-x="488" d="M356 88Q350 66 345 44T335 0H209L224 56Q195 25 164 8T88 -10Q66 -10 47 -6T12 9T-12 35T-21 76Q-21 93 -19 106T-12 136L94 504H218L122 171Q117 156 114 141T110 110Q110 88 122 78T155 68Q177 68 194 79T223 106T244 143T258 181L351 504H476L356 88ZM438 608H336L367 713H469L438 608ZM268 608H166L197 713H299L268 608Z"  />
<glyph unicode="&#xFD;" horiz-adv-x="433" d="M67 -193H-57L60 2L47 504H177L160 149L344 504H471L67 -193ZM290 584H212L337 726H469L290 584Z"  />
<glyph unicode="&#xFE;" horiz-adv-x="486" d="M448 416Q448 376 438 336T417 257Q404 212 389 165T349 79T287 15T192 -10Q160 -10 130 1T88 45L20 -192H-104L158 723H282L205 455Q232 484 266 500T340 516Q390 516 419 492T448 416ZM318 386Q318 409 309 423T275 438Q245 438 224 417T187 365T161 302T145 247Q137 218 130 187T122 126Q122 102 132 85T169 68Q196 68 216 90T251 144T276 208T292 261Q300 289 309 323T318 386Z"  />
<glyph unicode="&#xFF;" horiz-adv-x="433" d="M67 -193H-57L60 2L47 504H177L160 149L344 504H471L67 -193ZM414 608H312L343 713H445L414 608ZM244 608H142L173 713H275L244 608Z"  />
<glyph unicode="&#x152;" horiz-adv-x="781" d="M821 624H587L529 423H747L719 327H500L435 98H679L651 0Q635 0 594 0T505 0T417 0T359 0Q320 0 288 -1T217 -2Q175 -2 137 4T69 29T21 78T3 160Q3 208 13 250T36 338Q62 428 87 499T152 621T253 698T412 725Q448 725 484 724T556 723H850L821 624ZM455 627Q445 628 436 628T417 629Q357 629 320 616T258 572T213 487T169 353Q158 318 145 272T131 184Q131 158 138 141T158 113T191 99T234 95Q251 95 268 96T303 97L455 627Z"  />
<glyph unicode="&#x153;" horiz-adv-x="741" d="M705 396Q705 354 694 315T672 237H400Q392 209 383 179T374 119Q374 65 426 65Q448 65 464 73T492 95T512 127T526 163H647Q618 85 567 37T430 -12Q406 -12 383 -9T341 5T309 31T291 74Q258 30 218 9T123 -12Q92 -12 66 -6T20 15T-11 53T-22 111Q-22 148 -15 183T3 253Q19 309 38 357T88 441T163 497T272 518Q293 518 314 514T353 501T384 477T404 438Q464 518 565 518Q627 518 666 489T705 396ZM586 388Q586 440 535 440Q508 440 490 427T458 395T437 352T423 307H569Q574 327 580 347T586 388ZM315 381Q315 409 303 424T261 440Q226 440 203 419T164 366T139 300T122 239Q114 212 107 182T99 124Q99 97 111 81T152 65Q183 65 205 83T242 127T267 184T284 238Q293 270 304 309T315 381Z"  />
<glyph unicode="&#x160;" horiz-adv-x="512" d="M539 616Q539 596 535 575T521 525H389Q394 540 399 558T404 591Q404 620 385 630T340 641Q317 641 296 633T260 611T235 575T225 529Q225 495 242 471T290 423L356 369Q389 342 415 305T441 224Q441 186 423 140T369 58Q333 23 282 4T163 -15Q131 -15 97 -10T35 10T-10 50T-28 116Q-28 142 -23 168T-9 218H125Q119 201 114 180T108 140Q108 108 127 95T177 82Q202 82 225 91T264 118T291 157T301 205Q301 236 286 259T246 303L171 364Q131 396 109 431T87 514Q87 561 108 605T169 680Q207 710 256 724T360 738Q390 738 421 732T479 712T522 675T539 616ZM423 778H319L256 921H328L380 834L482 921H567L423 778Z"  />
<glyph unicode="&#x161;" horiz-adv-x="414" d="M396 423Q396 406 393 392T385 362H264Q268 373 270 384T273 408Q273 428 262 437T230 446Q201 446 181 425T160 374Q160 353 177 337T222 303L251 285Q267 275 282 264T308 240T327 212T334 178Q334 166 333 155T329 132Q318 93 297 66T247 22T183 -2T110 -10Q86 -10 59 -6T8 9T-31 40T-46 89Q-46 108 -42 125T-32 159H89Q85 146 82 133T79 106Q79 84 92 76T125 67Q160 67 182 91T204 151Q204 174 186 191T134 229L105 247Q76 266 54 288T31 344Q31 355 32 365T36 386Q46 422 67 447T117 487T179 509T244 516Q268 516 294 513T343 499T381 471T396 423ZM317 583H213L150 726H222L274 639L376 726H461L317 583Z"  />
<glyph unicode="&#x178;" horiz-adv-x="516" d="M291 266L215 0H81L161 269L102 723H235L259 387L484 723H625L291 266ZM508 792H406L437 897H539L508 792ZM338 792H236L267 897H369L338 792Z"  />
<glyph unicode="&#x17D;" horiz-adv-x="479" d="M529 613L86 98H385L357 0H-83L-52 111L392 625H112L139 723H560L529 613ZM404 778H300L237 921H309L361 834L463 921H548L404 778Z"  />
<glyph unicode="&#x17E;" horiz-adv-x="373" d="M368 423L76 80H271L248 0H-82L-58 85L232 425H50L74 504H392L368 423ZM299 583H195L132 726H204L256 639L358 726H443L299 583Z"  />
<glyph unicode="&#x192;" horiz-adv-x="472" d="M489 636Q476 641 463 641Q447 641 435 635T412 618T395 594T381 567L340 477H422L388 398H306L159 55Q140 10 120 -28T71 -95T5 -140T-87 -157Q-95 -157 -104 -157T-121 -154L-80 -62Q-73 -65 -65 -65Q-37 -65 -17 -43T27 31L185 398H116L151 477H220L235 512Q254 555 273 595T321 667T387 717T483 736Q495 736 506 735T530 732L489 636Z"  />
<glyph unicode="&#x2C6;" horiz-adv-x="225" d="M262 583L210 670L108 583H23L167 726H271L334 583H262Z"  />
<glyph unicode="&#x2DC;" horiz-adv-x="225" d="M384 710Q375 690 363 670T333 634T296 609T251 599Q233 599 217 605T184 617T152 630T117 636Q97 636 83 623T61 592H8Q17 613 30 633T60 669T99 694T146 704Q164 704 180 698T211 685T241 671T272 665Q294 665 308 678T331 710H384Z"  />
<glyph unicode="&#x2013;" horiz-adv-x="500" d="M464 232H-36L-13 313H487L464 232Z"  />
<glyph unicode="&#x2014;" horiz-adv-x="1001" d="M835 232H94L117 313H858L835 232Z"  />
<glyph unicode="&#x2018;" horiz-adv-x="247" d="M215 499H94L219 723H306L215 499Z"  />
<glyph unicode="&#x2019;" horiz-adv-x="248" d="M181 499H94L185 723H307L181 499Z"  />
<glyph unicode="&#x201A;" horiz-adv-x="248" d="M-1 -100H-88L4 124H126L-1 -100Z"  />
<glyph unicode="&#x201C;" horiz-adv-x="414" d="M383 499H261L386 723H473L383 499ZM215 499H94L219 723H306L215 499Z"  />
<glyph unicode="&#x201D;" horiz-adv-x="415" d="M349 499H261L352 723H474L349 499ZM181 499H94L185 723H307L181 499Z"  />
<glyph unicode="&#x201E;" horiz-adv-x="415" d="M167 -100H79L171 124H292L167 -100ZM-1 -100H-88L4 124H126L-1 -100Z"  />
<glyph unicode="&#x2020;" horiz-adv-x="439" d="M456 478H304L167 0H62L199 478H47L72 565H224L269 723H374L329 565H481L456 478Z"  />
<glyph unicode="&#x2021;" horiz-adv-x="439" d="M209 151L166 0H61L104 151H-47L-23 235H128L200 486H48L73 572H225L268 723H373L330 572H482L457 486H305L233 235H385L361 151H209Z"  />
<glyph unicode="&#x2022;" horiz-adv-x="499" d="M428 361Q428 324 414 291T376 234T318 195T248 180Q211 180 178 194T121 233T82 291T68 361Q68 398 82 430T120 487T178 526T248 540Q285 540 317 526T374 488T413 431T428 361Z"  />
<glyph unicode="&#x2026;" horiz-adv-x="1000" d="M793 0H667L704 130H831L793 0ZM459 0H334L371 130H497L459 0ZM126 0H1L38 130H164L126 0Z"  />
<glyph unicode="&#x2030;" horiz-adv-x="925" d="M852 246Q852 223 847 201T836 157Q827 124 814 94T780 40T733 2T666 -12Q623 -12 601 8T578 72Q578 93 582 113T592 154Q601 187 614 217T648 271T697 309T763 323Q804 323 828 306T852 246ZM349 658Q349 635 344 613T333 569Q324 536 311 506T278 452T231 414T164 400Q122 400 100 420T77 483Q77 504 81 524T91 565Q100 597 113 627T146 682T194 720T260 735Q301 735 325 718T349 658ZM78 -25H14L549 749H614L78 -25ZM553 246Q553 223 548 201T537 157Q528 124 515 94T482 40T435 2T368 -12Q325 -12 303 8T280 72Q280 93 284 113T294 154Q303 187 316 217T350 271T398 309T464 323Q505 323 529 307T553 246ZM776 233Q776 247 771 258T748 269Q726 269 709 246T679 192T660 130T653 81Q653 66 659 55T682 43Q698 43 711 54T733 83T750 121T762 160Q767 180 771 199T776 233ZM273 644Q273 658 267 669T244 680Q222 680 205 658T176 605T158 543T151 494Q151 479 157 467T180 455Q196 455 209 466T231 495T248 533T260 572Q265 592 269 611T273 644ZM477 233Q477 247 472 258T449 269Q427 269 410 246T380 192T361 129T354 80Q354 66 360 55T383 43Q399 43 412 54T435 83T452 121T464 160Q469 180 473 199T477 233Z"  />
<glyph unicode="&#x2039;" horiz-adv-x="271" d="M111 245L143 58H46L10 253L152 447H258L111 245Z"  />
<glyph unicode="&#x203A;" horiz-adv-x="273" d="M103 260L71 447H168L204 252L62 58H-44L103 260Z"  />
<glyph unicode="&#x20A0;" horiz-adv-x="472" d="M114 0L187 254Q162 237 125 237Q70 237 37 261T3 342Q3 371 9 402T28 478Q46 540 64 588T106 670T166 720T256 737Q282 737 306 732T348 716T376 686T387 642Q387 630 385 616T376 580H278Q282 597 283 605T285 622Q285 641 277 652T245 663Q225 663 210 654T182 624T157 571T131 491Q120 450 112 417T103 360Q103 336 112 324T146 312Q175 312 195 332T225 386L251 477H509L489 404H330L291 276H437L416 208H272L233 73H394L373 0H114Z"  />
<glyph unicode="&#x20A1;" horiz-adv-x="472" d="M-59 -75L4 61Q-18 97 -18 146Q-18 186 -9 234T19 348Q44 436 68 503T125 618T202 693T309 726L341 795H405L373 727Q392 726 408 723T439 714L478 795H541L488 682Q517 650 517 595Q517 579 515 561T507 523L500 498H380L384 517Q389 534 391 547T394 572Q394 630 332 630Q300 630 275 615T228 568T186 486T145 367Q125 297 114 249T103 166Q103 131 118 113T169 95Q217 95 248 127T301 231L306 248H429L424 230Q407 168 385 125T332 55T262 14T175 -2L141 -75H76L111 0Q75 5 49 19L5 -75H-59Z"  />
<glyph unicode="&#x20A2;" horiz-adv-x="472" d="M279 363Q298 395 324 411T388 428L363 339Q358 340 354 340T346 340Q305 340 283 311T248 240L201 79Q242 89 268 123T314 223L319 240H424L419 223Q401 155 375 110T315 37T239 -2T147 -14Q60 -14 19 24T-23 147Q-23 189 -14 240T14 356Q41 451 69 522T134 642T222 714T344 738Q380 738 411 731T464 708T500 665T513 602Q513 570 501 528L495 503H389L395 522Q403 551 403 574Q403 606 387 627T330 649Q294 649 266 633T215 583T173 495T132 368Q112 296 98 243T84 153Q84 101 115 84L186 333Q193 356 198 376T210 420H295L279 363Z"  />
<glyph unicode="&#x20A3;" horiz-adv-x="472" d="M166 241L96 0H-27L180 723H523L498 627H279L227 448H422L404 378H206L187 312H384L366 241H166Z"  />
<glyph unicode="&#x20A4;" horiz-adv-x="472" d="M187 253L141 95H381L356 0H-69L-44 95H23L69 253H2L19 323H90L109 389H38L56 458H129L148 521Q163 572 181 611T225 678T290 719T386 733Q419 733 446 728T494 710T525 678T536 628Q536 608 533 590T524 553H410Q412 564 415 576T418 599Q418 618 409 631T372 644Q336 644 312 617T271 538L247 458H385L368 389H227L208 323H348L329 253H187Z"  />
<glyph unicode="&#x20A5;" horiz-adv-x="472" d="M-3 -70L139 176L199 386Q204 403 204 418Q204 429 199 436T179 444Q153 444 136 423T109 371L4 0H-90L24 405Q32 428 39 454T53 504H144L130 453Q150 482 177 497T234 512Q265 512 281 497T299 453L381 595H442L393 511Q397 511 400 511T409 512Q451 512 466 493T482 446Q482 423 474 394L361 0H268L378 385Q383 403 383 417Q383 429 378 436T356 444H355L264 286L182 0H98L58 -70H-3Z"  />
<glyph unicode="&#x20A6;" horiz-adv-x="472" d="M179 0L194 273H120L40 0H-52L26 273H-32L-15 342H45L64 409H5L23 478H84L154 723H295L281 478H364L436 723H528L458 478H515L498 409H438L419 342H477L459 273H399L321 0H179ZM323 342L343 409H278L274 342H323ZM140 342H198L202 409H159L140 342ZM263 136L303 273H270L263 136ZM180 478H206L212 587L180 478Z"  />
<glyph unicode="&#x20A7;" horiz-adv-x="472" d="M228 512Q210 447 193 407T158 344T120 313T74 304H51L-35 0H-111L95 723H167Q209 723 230 704T251 639Q251 615 245 584T228 512ZM156 514Q178 589 178 620Q178 637 172 644T155 651H149L70 374H80Q90 374 99 379T116 400T134 442T156 514ZM301 407L209 86Q206 78 206 71Q206 59 218 59Q225 59 228 60L210 -2Q199 -5 185 -5Q157 -5 143 6T128 44Q128 61 134 84L227 407H207L225 469H245L268 549L350 574L320 469H346L327 407H301ZM433 159Q433 133 427 104T408 51T372 10T318 -6Q284 -6 267 14T250 73Q250 87 251 102T259 134L264 148H326L321 133Q315 116 313 102T311 78Q311 54 327 54Q336 54 342 62T354 84T361 111T364 137Q364 157 363 171T353 200L337 232Q326 254 321 271T316 317Q316 336 321 362T339 414T373 456T428 474Q460 474 478 456T497 401Q497 379 488 348L484 335H422L424 342Q429 356 431 369T434 392Q434 416 419 416Q409 416 403 408T392 387T385 362T383 338Q383 318 385 310T395 286L408 257Q422 228 427 208T433 159Z"  />
<glyph unicode="&#x20A8;" horiz-adv-x="472" d="M74 0Q78 30 88 70T110 150T131 226T140 284Q140 304 131 312T100 320H80L-11 0H-95L111 723H223Q266 723 296 700T327 624Q327 598 321 566T305 502T281 441T251 395Q236 379 220 370T182 355Q204 349 216 336T229 300Q229 273 220 236T198 157T175 75T161 0H74ZM240 606Q240 627 231 639T199 651H173L100 393H122Q157 393 180 418Q194 434 205 460T224 513T236 566T240 606ZM432 159Q432 129 424 100T400 47T358 9T296 -6Q257 -6 230 15T203 82Q203 107 213 136L216 150H290L286 134Q282 122 281 111T279 90Q279 59 303 59Q315 59 324 67T339 86T348 111T351 137Q351 167 333 191L312 219Q294 243 282 266T270 317Q270 348 278 376T302 426T343 461T401 474Q442 474 466 454T491 392Q491 369 484 345L480 330H405L408 339Q416 369 416 386Q416 414 392 414Q381 414 373 408T360 391T351 368T348 344Q348 314 368 289L390 262Q409 239 420 215T432 159Z"  />
<glyph unicode="&#x20A9;" horiz-adv-x="472" d="M170 0L233 273H192L95 0H-26L25 273H-32L-14 342H38L51 409H6L23 478H64L110 723H208L152 478H196L284 723H404L347 478H391L481 723H570L472 478H513L496 409H444L418 342H475L458 273H390L282 0H170ZM315 342H342L366 409H331L315 342ZM121 342H147L171 409H136L121 342ZM216 342H249L264 409H240L216 342ZM299 273L269 142L317 273H299ZM105 273L75 142L122 273H105ZM265 478H280L307 596L265 478Z"  />
<glyph unicode="&#x20AA;" horiz-adv-x="472" d="M405 153Q391 106 373 77T330 30T273 7T200 0H33L189 543H266L136 93H232Q275 93 298 109T331 161L492 723H569L405 153ZM212 181L322 562Q332 597 321 613T268 630H167L-13 0H-90L116 723H290Q329 723 356 717T397 693T412 647T400 570L288 181H212Z"  />
<glyph unicode="&#x20AB;" horiz-adv-x="472" d="M237 134L253 185Q227 155 199 141T135 126Q83 126 56 151T28 228Q28 259 35 290T50 351Q61 391 74 428T108 493T160 537T239 554Q277 554 303 538T336 488L370 603H215L232 665H387L403 723H506L489 665H535L518 603H472L363 225L338 134H237ZM293 341Q299 362 305 388T312 435Q312 455 302 470T261 486Q218 486 195 453T152 350Q145 326 138 297T131 246Q131 223 142 208T182 192Q207 192 224 204T254 238T276 285T293 341ZM-42 0L-24 70H351L334 0H-42Z"  />
<glyph unicode="&#x20AC;" horiz-adv-x="472" d="M199 276Q191 249 186 230T178 196T174 170T172 146Q172 111 191 95T252 79Q292 79 321 93T378 136V24Q344 2 308 -5T226 -13Q130 -13 88 23T46 125Q46 145 52 181T73 276H-5L32 351H94L114 417H30L68 492H137Q157 555 181 601T238 677T318 721T431 736Q471 736 507 725T567 684L517 587Q508 619 479 631T418 644Q383 644 359 633T317 601T287 552T265 492H467L429 417H242Q237 398 232 382T222 351H392L355 276H199Z"  />
<glyph unicode="&#x20AD;" horiz-adv-x="472" d="M314 330L386 0H247L183 392L443 723H582L321 421H457L432 330H314ZM15 421H65L152 723H276L69 0H-55L39 330H-8L15 421Z"  />
<glyph unicode="&#x20AE;" horiz-adv-x="472" d="M272 254L198 0H72L135 219L46 196L65 269L156 291L175 356L83 332L101 404L196 427L255 630H91L115 723H564L539 630H381L332 461L427 485L409 416L311 391L292 325L390 349L370 280L272 254Z"  />
<glyph unicode="&#x20AF;" horiz-adv-x="472" d="M303 615Q303 586 293 540T269 441T240 339T212 253Q193 195 174 149T132 69T82 18T21 0H-90L116 723H201Q255 723 279 698T303 615ZM220 602Q220 644 186 644H176L16 84H31Q49 84 63 98T91 138T117 201T145 284Q157 322 170 369T194 462T213 546T220 602ZM450 225Q434 171 420 127T389 53T353 5T306 -12Q287 -12 274 -1T258 31L210 -139H134L272 344Q310 474 394 474Q438 474 458 449T479 382Q479 350 472 312T450 225ZM369 227Q384 277 393 316T403 378Q403 404 387 404Q379 404 372 395T358 367T341 318T320 244Q305 193 294 151T283 85Q283 62 297 62Q316 62 331 105T369 227Z"  />
<glyph unicode="&#x20B0;" horiz-adv-x="472" d="M235 0L360 437H321L341 504H380L413 618Q421 646 430 666T453 701T486 722T536 729Q548 729 558 728T579 724L559 653Q554 655 550 655T542 655Q521 655 512 644T498 611L468 504H515L495 437H448L323 0H235ZM324 504Q306 439 285 399T239 337T186 307T124 299H85L-1 0H-92L114 723H215Q278 723 309 696T341 609Q341 588 337 562T324 504ZM237 514Q244 538 246 556T249 589Q249 616 236 627T197 639H180L106 382H129Q170 382 193 412T237 514Z"  />
<glyph unicode="&#x20B1;" horiz-adv-x="472" d="M482 541Q480 533 478 525T474 508Q471 499 468 491T463 474H511L493 405H434Q418 375 398 354T350 319T288 300T206 294H160L74 0H-51L65 405H8L27 474H84L103 541H47L65 610H123L156 723H312Q390 723 438 698T490 610H549L531 541H482ZM351 510Q365 557 365 585Q365 615 345 625T296 635H255L179 380H215Q244 380 264 386T301 408T328 448T351 510Z"  />
<glyph unicode="&#x20B2;" horiz-adv-x="472" d="M381 725Q452 719 480 688T508 601Q508 563 496 520L493 505H382L385 519Q394 552 394 576Q394 604 379 620T328 636Q290 636 263 619T213 568T173 482T135 363Q118 301 106 252T94 167Q94 129 112 108T172 86Q197 86 220 90T267 101L324 289H261L285 380H457L357 30Q306 13 261 5T171 -4L151 -75H87L108 -1Q38 7 7 43T-24 150Q-24 193 -13 246T16 363Q40 451 65 517T125 629T205 698T317 726L337 795H401L381 725Z"  />
<glyph unicode="&#x20B3;" horiz-adv-x="472" d="M240 0L254 130H90L34 0H-89L-29 130H-66L-49 200H2L31 263H-30L-12 332H63L243 723H431L396 332H475L457 263H390L384 200H437L420 130H378L367 0H240ZM178 332H277L311 640L178 332ZM121 200H262L269 263H148L121 200Z"  />
<glyph unicode="&#x20B4;" horiz-adv-x="472" d="M162 270Q127 241 107 207T86 132Q86 108 99 87T149 66Q198 66 226 94T274 188L277 199H389L387 191Q371 132 349 93T296 30T226 -4T139 -14Q53 -14 12 23T-29 129Q-29 170 -17 204T17 270H-24L-6 339H84Q107 357 132 373T187 405H14L32 475H312Q385 531 385 602Q385 628 369 644T320 660Q274 660 252 634T216 559L212 546H98L100 555Q112 597 129 631T174 688T239 724T328 737Q418 737 458 699T498 599Q498 564 488 533T457 475H503L485 405H387Q341 370 280 339H465L447 270H162Z"  />
<glyph unicode="&#x20B5;" horiz-adv-x="472" d="M384 726Q447 720 482 689T517 595Q517 579 515 561T507 523L500 498H380L384 517Q389 534 391 547T394 572Q394 618 355 627L203 99Q237 109 260 141T301 231L306 248H429L424 230Q407 168 385 125T332 55T262 14T174 -2L153 -75H90L111 0Q53 8 18 44T-18 146Q-18 186 -9 234T19 348Q44 438 69 506T128 622T207 696T319 727L339 795H404L384 726ZM103 166Q103 112 140 99L289 622Q245 604 213 542T145 367Q125 297 114 249T103 166Z"  />
<glyph unicode="&#x20B6;" horiz-adv-x="472" d="M-39 0L84 429H18L39 504H106L169 723H285L222 504H313L339 591L466 637L430 504H512L492 429H409L321 133Q318 123 316 113T314 95Q314 78 323 72T353 65Q367 65 379 68L361 -1Q344 -5 329 -6T290 -8Q245 -8 220 10T195 71Q195 85 197 98T205 127L294 429H200L77 0H-39Z"  />
<glyph unicode="&#x20B7;" horiz-adv-x="472" d="M200 184Q200 178 199 172T196 158L171 71Q196 74 218 83T256 109T283 148T293 200Q293 235 270 262T212 316L174 345Q155 360 135 377T99 415T72 461T61 519Q61 572 82 612T139 681T224 723T329 737Q369 737 403 730T462 706T501 665T516 605Q516 590 513 573T501 530H379Q384 550 387 562T390 586Q390 614 371 630T317 646Q268 646 234 618T199 538Q199 505 216 484T260 442L304 409Q331 388 353 369T390 330T414 286T423 234Q423 177 403 134T347 62T261 17T150 0H97L142 159Q144 167 144 170Q144 183 131 183Q117 183 109 173T98 151L54 0H1L46 159Q48 162 48 169Q48 183 34 183Q20 183 12 172T2 151L-41 0H-94L-48 163Q-45 176 -41 190T-34 216H19L13 196Q34 222 64 222Q81 222 90 214T102 192Q115 206 128 214T159 222Q200 222 200 184Z"  />
<glyph unicode="&#x20B8;" horiz-adv-x="472" d="M338 498L192 0H68L214 498H57L78 582H518L497 498H338ZM96 640L118 723H558L536 640H96Z"  />
<glyph unicode="&#x20B9;" horiz-adv-x="472" d="M474 518H401Q383 456 342 414T227 361Q268 354 292 336T316 275Q316 252 307 218T287 146T267 69T258 0H129Q131 33 140 67T158 135T176 200T184 258Q184 276 177 287T157 305T129 313T95 316H40L61 397H104Q181 397 221 425T281 517V518H98L115 587H290Q288 623 267 638T212 654H136L154 723H530L512 654H401Q414 628 414 596V587H491L474 518Z"  />
<glyph unicode="&#x20BA;" horiz-adv-x="472" d="M186 332L118 98H160Q190 98 212 106T252 133T282 178T307 244L312 260H430L426 240Q409 172 385 127T329 53T256 12T165 0H-30L54 296L-7 279L12 352L75 369L93 432L31 415L49 488L114 506L177 723H300L247 542L396 582L377 510L226 468L207 405L357 446L340 374L186 332Z"  />
<glyph unicode="&#x2122;" horiz-adv-x="825" d="M741 367V655L651 367H594L503 655V367H433V723H548L623 482L699 723H810V367H741ZM269 663V367H193V663H90V723H372V663H269Z"  />

</font>
</defs>
</svg>
